<svg xmlns="http://www.w3.org/2000/svg" viewBox="0 0 250 70">
  <path d="M15,35 h220 M125,10 v50" stroke="none" fill="#000000"/>
  <path d="M20,35 L125,15 L230,35 L125,55 Z" fill="#000000"/>
  <path d="M30,35 L125,19 L220,35 L125,51 Z" fill="#ffffff"/>
  <g fill="#000000" transform="translate(54, 32)">
    <path d="M6.8,0.6h5.2c3.4,0,5.9,1.2,5.9,4.8c0,3.5-2.6,4.8-5.9,4.8H6.8V0.6z M9.3,7.9h2.4c1.8,0,3.4-0.6,3.4-2.5c0-1.9-1.6-2.5-3.4-2.5H9.3V7.9z"/>
    <path d="M29.5,2.9c-0.6-0.7-1.4-1-2.3-1c-1.9,0-3.3,1.5-3.3,3.4c0,1.9,1.4,3.4,3.3,3.4c0.9,0,1.8-0.4,2.3-1.1v1.5c-0.7,0.3-1.5,0.5-2.3,0.5c-2.8,0-5-2.1-5-4.8c0-2.7,2.2-4.8,5-4.8c0.8,0,1.6,0.2,2.3,0.5V2.9z"/>
    <path d="M35,10.2h-2.5V0.6H35c2.7,0,4.9,2.1,4.9,4.8C39.9,8.1,37.7,10.2,35,10.2z M35,3h-0.1v4.9H35c1.3,0,2.4-1.1,2.4-2.4C37.4,4.1,36.3,3,35,3z"/>
    <path d="M46.6,8.1c1.3,0,2.3-1.1,2.3-2.4v-5h2.5v5c0,2.7-2.2,4.8-4.9,4.8c-2.7,0-4.8-2.1-4.8-4.8v-5h2.5v5C44.2,7,45.3,8.1,46.6,8.1z"/>
    <path d="M55.7,0.6h3.8c2.7,0,4.9,2.1,4.9,4.8c0,2.7-2.2,4.8-4.9,4.8h-3.8V0.6z M58.2,7.9h1.2c1.3,0,2.4-1.1,2.4-2.4c0-1.4-1.1-2.5-2.4-2.5h-1.2V7.9z"/>
    <path d="M71.2,3.1h-2.9V0.6h8.4v2.5h-2.9v7.1h-2.5V3.1z"/>
    <path d="M86.2,0.6v2.5h-4.6v1.2h4.2v2.3h-4.2v1.2h4.7v2.5h-7.1V0.6H86.2z"/>
  </g>
</svg>
