<svg xmlns="http://www.w3.org/2000/svg" viewBox="0 0 220 70">
  <g fill="#009999">
    <path d="M20,35 h13 c0,-7 5,-12 12,-12 c7,0 12,5 12,12 c0,7 -5,12 -12,12 h-25 z"/>
    <rect x="60" y="23" width="8" height="24"/>
    <path d="M75,23 h8 v3 c2,-2 5,-4 9,-4 c8,0 13,6 13,13 c0,7 -5,13 -13,13 c-4,0 -7,-1 -9,-4 v12 h-8 z M91,35 c0,-3 -2,-6 -5,-6 c-3,0 -5,3 -5,6 c0,3 2,6 5,6 c3,0 5,-3 5,-6 z"/>
    <path d="M110,23 h8 v3 c2,-2 5,-4 9,-4 c8,0 13,6 13,13 c0,7 -5,13 -13,13 c-4,0 -7,-1 -9,-4 v12 h-8 z M126,35 c0,-3 -2,-6 -5,-6 c-3,0 -5,3 -5,6 c0,3 2,6 5,6 c3,0 5,-3 5,-6 z"/>
    <path d="M145,23 h8 v3 c2,-2 5,-4 9,-4 c3,0 6,1 8,3 c2,-2 6,-3 9,-3 c7,0 12,4 12,12 v14 h-8 v-13 c0,-3 -1,-5 -4,-5 c-2,0 -4,2 -4,5 v13 h-8 v-13 c0,-3 -1,-5 -4,-5 c-2,0 -4,2 -4,5 v13 h-8 v-25 z"/>
    <path d="M195,18 c0,3 -2,5 -5,5 c-3,0 -5,-2 -5,-5 c0,-3 2,-5 5,-5 c3,0 5,2 5,5 z M186,23 h8 v25 h-8 z"/>
  </g>
</svg>
