<svg width="1478" height="430" viewBox="0 0 1478 430" fill="none" xmlns="http://www.w3.org/2000/svg">
<path d="M242.299 208.15L270.109 123.18H291.189L266.619 189.94H340.689L296.569 111.46C292.759 104.69 285.609 100.5 277.839 100.5H173.669C165.909 100.5 158.749 104.69 154.939 111.46L102.379 204.96C98.819 211.29 98.709 218.98 102.029 225.4H212.069L184.259 310.37H163.179L187.749 243.61H112.249L154.939 319.55C158.749 326.32 165.899 330.51 173.669 330.51H277.839C285.599 330.51 292.759 326.32 296.569 319.55L349.129 226.05C352.229 220.54 352.719 214 350.589 208.16H242.289L242.299 208.15ZM196.449 208.15L198.969 163.94L186.439 208.15H158.389L159.509 123.17H177.829L175.679 191.34H177.829L196.429 123.17H214.659L210.829 191.34H212.979L234.389 123.17H252.739L224.499 208.15H196.449ZM294.859 310.37H276.539L278.689 242.2H276.539L257.939 310.37H239.709L243.539 242.2H241.389L219.979 310.37H201.629L229.869 225.39H257.919L255.399 269.6L267.929 225.39H295.979L294.859 310.37Z" fill="#38618C"/>
<path d="M536.07 122.03L509.36 219.93H486.76L468.82 150.22L450.05 219.93L427.58 220.07L401.83 122.03H422.38L439.23 198.05L458.68 122.03H480.05L498.41 197.63L515.4 122.03H536.08H536.07Z" fill="#A3A8AC"/>
<path d="M567.709 137.88V162.42H599.899V177.99H567.709V203.94H604.009V219.93H548.529V121.89H604.009V137.88H567.709Z" fill="#A3A8AC"/>
<path d="M670.72 219.92L649.62 181.77H640.58V219.92H621.4V122.02H657.29C664.69 122.02 670.99 123.35 676.19 126.02C681.4 128.68 685.3 132.29 687.9 136.82C690.5 141.36 691.8 146.43 691.8 152.04C691.8 158.49 689.97 164.31 686.32 169.5C682.67 174.69 677.23 178.27 670.02 180.23L692.9 219.92H670.71H670.72ZM640.58 167.05H656.61C661.82 167.05 665.7 165.77 668.25 163.19C670.81 160.62 672.09 157.04 672.09 152.46C672.09 147.88 670.81 144.49 668.25 142.01C665.69 139.53 661.81 138.29 656.61 138.29H640.58V167.04V167.05Z" fill="#A3A8AC"/>
<path d="M790.991 219.92H771.811L728.391 152.74V219.92H709.211V121.88H728.391L771.811 189.2V121.88H790.991V219.92Z" fill="#A3A8AC"/>
<path d="M829.071 137.88V162.42H861.261V177.99H829.071V203.94H865.371V219.93H809.891V121.89H865.371V137.88H829.071Z" fill="#A3A8AC"/>
<path d="M932.08 219.92L910.99 181.77H901.95V219.92H882.77V122.02H918.659C926.059 122.02 932.36 123.35 937.56 126.02C942.77 128.68 946.67 132.29 949.27 136.82C951.87 141.36 953.169 146.43 953.169 152.04C953.169 158.49 951.34 164.31 947.69 169.5C944.04 174.69 938.6 178.27 931.39 180.23L954.26 219.92H932.07H932.08ZM901.94 167.05H917.969C923.179 167.05 927.059 165.77 929.609 163.19C932.159 160.62 933.44 157.04 933.44 152.46C933.44 147.88 932.159 144.49 929.609 142.01C927.049 139.53 923.169 138.29 917.969 138.29H901.94V167.04V167.05Z" fill="#A3A8AC"/>
<path d="M1022.35 204.36H1053.86V219.93H1003.18V122.03H1022.36V204.36H1022.35Z" fill="#A3A8AC"/>
<path d="M1085.22 122.03V219.93H1066.04V122.03H1085.22Z" fill="#A3A8AC"/>
<path d="M1105.84 144.96C1110.09 137.34 1115.88 131.4 1123.24 127.15C1130.59 122.9 1138.83 120.77 1147.96 120.77C1158.64 120.77 1168.01 123.58 1176.04 129.19C1184.08 134.8 1189.69 142.56 1192.89 152.47H1170.84C1168.65 147.8 1165.57 144.29 1161.59 141.95C1157.62 139.61 1153.03 138.44 1147.82 138.44C1142.25 138.44 1137.29 139.77 1132.96 142.44C1128.62 145.11 1125.24 148.87 1122.82 153.73C1120.4 158.59 1119.19 164.3 1119.19 170.84C1119.19 177.38 1120.4 182.97 1122.82 187.88C1125.24 192.79 1128.62 196.58 1132.96 199.24C1137.3 201.9 1142.25 203.24 1147.82 203.24C1153.03 203.24 1157.61 202.05 1161.59 199.66C1165.56 197.28 1168.64 193.75 1170.84 189.07H1192.89C1189.69 199.08 1184.1 206.86 1176.11 212.42C1168.12 217.98 1158.74 220.77 1147.96 220.77C1138.83 220.77 1130.59 218.64 1123.24 214.39C1115.89 210.14 1110.09 204.22 1105.84 196.65C1101.59 189.08 1099.47 180.47 1099.47 170.84C1099.47 161.21 1101.59 152.59 1105.84 144.96Z" fill="#A3A8AC"/>
<path d="M1288.64 122.03V219.93H1269.46V178.28H1228.5V219.93H1209.32V122.03H1228.5V162.28H1269.46V122.03H1288.64Z" fill="#A3A8AC"/>
<path d="M1383.57 122.03L1351.24 185.84V219.92H1332.06V185.84L1299.59 122.03H1321.23L1341.78 166.77L1362.19 122.03H1383.56H1383.57Z" fill="#A3A8AC"/>
<path d="M406.716 291H403.023L413.705 261.909H417.341L428.023 291H424.33L415.636 266.511H415.409L406.716 291ZM408.08 279.636H422.966V282.761H408.08V279.636ZM435.452 261.909V291H432.099V261.909H435.452ZM455.342 282.08V269.182H458.694V291H455.342V287.307H455.114C454.603 288.415 453.808 289.357 452.728 290.134C451.648 290.901 450.285 291.284 448.637 291.284C447.273 291.284 446.061 290.986 445.001 290.389C443.94 289.783 443.107 288.874 442.501 287.662C441.895 286.44 441.592 284.902 441.592 283.045V269.182H444.944V282.818C444.944 284.409 445.389 285.678 446.279 286.625C447.179 287.572 448.325 288.045 449.717 288.045C450.55 288.045 451.397 287.832 452.259 287.406C453.13 286.98 453.86 286.327 454.447 285.446C455.043 284.565 455.342 283.443 455.342 282.08ZM464.834 291V269.182H468.072V272.591H468.357C468.811 271.426 469.545 270.522 470.558 269.878C471.571 269.224 472.788 268.898 474.209 268.898C475.648 268.898 476.846 269.224 477.803 269.878C478.768 270.522 479.521 271.426 480.061 272.591H480.288C480.847 271.464 481.685 270.569 482.803 269.906C483.92 269.234 485.26 268.898 486.822 268.898C488.773 268.898 490.369 269.509 491.609 270.73C492.85 271.942 493.47 273.831 493.47 276.398V291H490.118V276.398C490.118 274.788 489.678 273.637 488.797 272.946C487.916 272.255 486.879 271.909 485.686 271.909C484.152 271.909 482.964 272.373 482.121 273.301C481.278 274.22 480.857 275.384 480.857 276.795V291H477.447V276.057C477.447 274.816 477.045 273.817 476.24 273.06C475.435 272.293 474.398 271.909 473.129 271.909C472.258 271.909 471.444 272.141 470.686 272.605C469.938 273.069 469.332 273.713 468.868 274.537C468.413 275.351 468.186 276.294 468.186 277.364V291H464.834ZM499.599 291V269.182H502.952V291H499.599ZM501.304 265.545C500.651 265.545 500.087 265.323 499.614 264.878C499.15 264.433 498.918 263.898 498.918 263.273C498.918 262.648 499.15 262.113 499.614 261.668C500.087 261.223 500.651 261 501.304 261C501.957 261 502.516 261.223 502.98 261.668C503.454 262.113 503.69 262.648 503.69 263.273C503.69 263.898 503.454 264.433 502.98 264.878C502.516 265.323 501.957 265.545 501.304 265.545ZM512.444 277.875V291H509.092V269.182H512.33V272.591H512.614C513.126 271.483 513.902 270.593 514.944 269.92C515.986 269.239 517.33 268.898 518.978 268.898C520.455 268.898 521.748 269.201 522.856 269.807C523.964 270.403 524.826 271.312 525.441 272.534C526.057 273.746 526.364 275.28 526.364 277.136V291H523.012V277.364C523.012 275.65 522.567 274.314 521.677 273.358C520.787 272.392 519.565 271.909 518.012 271.909C516.942 271.909 515.986 272.141 515.143 272.605C514.309 273.069 513.651 273.746 513.168 274.636C512.685 275.527 512.444 276.606 512.444 277.875ZM532.49 291V269.182H535.842V291H532.49ZM534.195 265.545C533.541 265.545 532.978 265.323 532.504 264.878C532.04 264.433 531.808 263.898 531.808 263.273C531.808 262.648 532.04 262.113 532.504 261.668C532.978 261.223 533.541 261 534.195 261C534.848 261 535.407 261.223 535.871 261.668C536.344 262.113 536.581 262.648 536.581 263.273C536.581 263.898 536.344 264.433 535.871 264.878C535.407 265.323 534.848 265.545 534.195 265.545ZM555.732 282.08V269.182H559.085V291H555.732V287.307H555.505C554.994 288.415 554.198 289.357 553.119 290.134C552.039 290.901 550.675 291.284 549.028 291.284C547.664 291.284 546.452 290.986 545.391 290.389C544.331 289.783 543.497 288.874 542.891 287.662C542.285 286.44 541.982 284.902 541.982 283.045V269.182H545.335V282.818C545.335 284.409 545.78 285.678 546.67 286.625C547.569 287.572 548.715 288.045 550.107 288.045C550.941 288.045 551.788 287.832 552.65 287.406C553.521 286.98 554.25 286.327 554.837 285.446C555.434 284.565 555.732 283.443 555.732 282.08ZM565.224 291V269.182H568.463V272.591H568.747C569.202 271.426 569.936 270.522 570.949 269.878C571.962 269.224 573.179 268.898 574.599 268.898C576.039 268.898 577.237 269.224 578.193 269.878C579.159 270.522 579.912 271.426 580.452 272.591H580.679C581.238 271.464 582.076 270.569 583.193 269.906C584.311 269.234 585.651 268.898 587.213 268.898C589.164 268.898 590.759 269.509 592 270.73C593.241 271.942 593.861 273.831 593.861 276.398V291H590.509V276.398C590.509 274.788 590.068 273.637 589.188 272.946C588.307 272.255 587.27 271.909 586.077 271.909C584.543 271.909 583.354 272.373 582.511 273.301C581.669 274.22 581.247 275.384 581.247 276.795V291H577.838V276.057C577.838 274.816 577.436 273.817 576.631 273.06C575.826 272.293 574.789 271.909 573.52 271.909C572.649 271.909 571.834 272.141 571.077 272.605C570.329 273.069 569.723 273.713 569.259 274.537C568.804 275.351 568.577 276.294 568.577 277.364V291H565.224ZM635.104 271H631.581C631.373 269.987 631.008 269.097 630.487 268.33C629.976 267.562 629.351 266.919 628.612 266.398C627.883 265.867 627.073 265.47 626.183 265.205C625.293 264.939 624.365 264.807 623.399 264.807C621.638 264.807 620.042 265.252 618.612 266.142C617.192 267.032 616.06 268.344 615.217 270.077C614.384 271.81 613.967 273.936 613.967 276.455C613.967 278.973 614.384 281.099 615.217 282.832C616.06 284.565 617.192 285.877 618.612 286.767C620.042 287.657 621.638 288.102 623.399 288.102C624.365 288.102 625.293 287.97 626.183 287.705C627.073 287.439 627.883 287.046 628.612 286.526C629.351 285.995 629.976 285.347 630.487 284.58C631.008 283.803 631.373 282.913 631.581 281.909H635.104C634.839 283.396 634.356 284.726 633.655 285.901C632.954 287.075 632.083 288.074 631.041 288.898C630 289.712 628.83 290.332 627.533 290.759C626.245 291.185 624.867 291.398 623.399 291.398C620.918 291.398 618.712 290.792 616.78 289.58C614.848 288.367 613.328 286.644 612.22 284.409C611.112 282.174 610.558 279.523 610.558 276.455C610.558 273.386 611.112 270.735 612.22 268.5C613.328 266.265 614.848 264.542 616.78 263.33C618.712 262.117 620.918 261.511 623.399 261.511C624.867 261.511 626.245 261.724 627.533 262.151C628.83 262.577 630 263.202 631.041 264.026C632.083 264.84 632.954 265.834 633.655 267.009C634.356 268.173 634.839 269.504 635.104 271ZM646.762 291.511C645.379 291.511 644.125 291.251 642.998 290.73C641.871 290.2 640.976 289.438 640.313 288.443C639.65 287.439 639.319 286.227 639.319 284.807C639.319 283.557 639.565 282.544 640.058 281.767C640.55 280.981 641.208 280.366 642.032 279.92C642.856 279.475 643.765 279.144 644.759 278.926C645.763 278.699 646.772 278.519 647.785 278.386C649.111 278.216 650.185 278.088 651.009 278.003C651.843 277.908 652.449 277.752 652.827 277.534C653.216 277.316 653.41 276.937 653.41 276.398V276.284C653.41 274.883 653.026 273.794 652.259 273.017C651.502 272.241 650.351 271.852 648.808 271.852C647.207 271.852 645.952 272.203 645.043 272.903C644.134 273.604 643.495 274.352 643.126 275.148L639.944 274.011C640.512 272.686 641.27 271.653 642.217 270.915C643.173 270.167 644.215 269.646 645.342 269.352C646.478 269.049 647.595 268.898 648.694 268.898C649.395 268.898 650.2 268.983 651.109 269.153C652.027 269.314 652.913 269.651 653.765 270.162C654.627 270.673 655.342 271.445 655.91 272.477C656.478 273.509 656.762 274.892 656.762 276.625V291H653.41V288.045H653.239C653.012 288.519 652.633 289.026 652.103 289.565C651.573 290.105 650.867 290.564 649.987 290.943C649.106 291.322 648.031 291.511 646.762 291.511ZM647.273 288.5C648.599 288.5 649.717 288.24 650.626 287.719C651.544 287.198 652.236 286.526 652.7 285.702C653.173 284.878 653.41 284.011 653.41 283.102V280.034C653.268 280.205 652.955 280.361 652.472 280.503C651.999 280.635 651.45 280.754 650.825 280.858C650.209 280.953 649.608 281.038 649.021 281.114C648.443 281.18 647.974 281.237 647.614 281.284C646.743 281.398 645.929 281.582 645.171 281.838C644.423 282.084 643.817 282.458 643.353 282.96C642.898 283.453 642.671 284.125 642.671 284.977C642.671 286.142 643.102 287.023 643.964 287.619C644.835 288.206 645.938 288.5 647.273 288.5ZM678.335 274.068L675.324 274.92C675.134 274.419 674.855 273.931 674.486 273.457C674.126 272.974 673.634 272.577 673.009 272.264C672.384 271.952 671.583 271.795 670.608 271.795C669.273 271.795 668.16 272.103 667.27 272.719C666.389 273.325 665.949 274.097 665.949 275.034C665.949 275.867 666.252 276.526 666.858 277.009C667.464 277.491 668.411 277.894 669.699 278.216L672.938 279.011C674.888 279.485 676.342 280.209 677.298 281.185C678.255 282.151 678.733 283.396 678.733 284.92C678.733 286.17 678.373 287.288 677.653 288.273C676.943 289.258 675.949 290.034 674.67 290.602C673.392 291.17 671.905 291.455 670.21 291.455C667.985 291.455 666.143 290.972 664.685 290.006C663.226 289.04 662.303 287.629 661.915 285.773L665.097 284.977C665.4 286.152 665.973 287.032 666.815 287.619C667.668 288.206 668.78 288.5 670.153 288.5C671.716 288.5 672.956 288.169 673.875 287.506C674.803 286.833 675.267 286.028 675.267 285.091C675.267 284.333 675.002 283.699 674.472 283.188C673.941 282.667 673.127 282.278 672.028 282.023L668.392 281.17C666.394 280.697 664.926 279.963 663.989 278.969C663.061 277.965 662.597 276.71 662.597 275.205C662.597 273.973 662.942 272.884 663.634 271.938C664.334 270.991 665.286 270.247 666.489 269.707C667.701 269.168 669.074 268.898 670.608 268.898C672.767 268.898 674.462 269.371 675.693 270.318C676.934 271.265 677.814 272.515 678.335 274.068ZM693.268 269.182V272.023H681.961V269.182H693.268ZM685.256 263.955H688.609V284.75C688.609 285.697 688.746 286.407 689.021 286.881C689.305 287.345 689.665 287.657 690.1 287.818C690.545 287.97 691.014 288.045 691.506 288.045C691.876 288.045 692.179 288.027 692.415 287.989C692.652 287.941 692.842 287.903 692.984 287.875L693.665 290.886C693.438 290.972 693.121 291.057 692.714 291.142C692.307 291.237 691.79 291.284 691.165 291.284C690.219 291.284 689.29 291.08 688.381 290.673C687.482 290.266 686.734 289.646 686.137 288.812C685.55 287.979 685.256 286.928 685.256 285.659V263.955ZM698.31 291V269.182H701.663V291H698.31ZM700.015 265.545C699.362 265.545 698.798 265.323 698.325 264.878C697.861 264.433 697.629 263.898 697.629 263.273C697.629 262.648 697.861 262.113 698.325 261.668C698.798 261.223 699.362 261 700.015 261C700.668 261 701.227 261.223 701.691 261.668C702.165 262.113 702.401 262.648 702.401 263.273C702.401 263.898 702.165 264.433 701.691 264.878C701.227 265.323 700.668 265.545 700.015 265.545ZM711.155 277.875V291H707.803V269.182H711.041V272.591H711.325C711.837 271.483 712.613 270.593 713.655 269.92C714.696 269.239 716.041 268.898 717.689 268.898C719.166 268.898 720.459 269.201 721.567 269.807C722.675 270.403 723.536 271.312 724.152 272.534C724.768 273.746 725.075 275.28 725.075 277.136V291H721.723V277.364C721.723 275.65 721.278 274.314 720.388 273.358C719.498 272.392 718.276 271.909 716.723 271.909C715.653 271.909 714.696 272.141 713.854 272.605C713.02 273.069 712.362 273.746 711.879 274.636C711.396 275.527 711.155 276.606 711.155 277.875ZM740.008 299.636C738.388 299.636 736.996 299.428 735.832 299.011C734.667 298.604 733.696 298.064 732.92 297.392C732.153 296.729 731.542 296.019 731.087 295.261L733.758 293.386C734.061 293.784 734.444 294.239 734.908 294.75C735.372 295.271 736.007 295.721 736.812 296.099C737.626 296.488 738.692 296.682 740.008 296.682C741.769 296.682 743.223 296.256 744.369 295.403C745.514 294.551 746.087 293.216 746.087 291.398V286.966H745.803C745.557 287.364 745.207 287.856 744.752 288.443C744.307 289.021 743.663 289.537 742.82 289.991C741.987 290.437 740.86 290.659 739.44 290.659C737.678 290.659 736.097 290.242 734.695 289.409C733.303 288.576 732.2 287.364 731.386 285.773C730.581 284.182 730.178 282.25 730.178 279.977C730.178 277.742 730.571 275.796 731.357 274.139C732.143 272.473 733.237 271.185 734.638 270.276C736.04 269.357 737.659 268.898 739.496 268.898C740.917 268.898 742.044 269.134 742.877 269.608C743.72 270.072 744.364 270.602 744.809 271.199C745.263 271.786 745.614 272.269 745.86 272.648H746.201V269.182H749.44V291.625C749.44 293.5 749.013 295.025 748.161 296.199C747.318 297.383 746.182 298.249 744.752 298.798C743.332 299.357 741.75 299.636 740.008 299.636ZM739.894 287.648C741.239 287.648 742.375 287.34 743.303 286.724C744.231 286.109 744.937 285.223 745.42 284.068C745.903 282.913 746.144 281.53 746.144 279.92C746.144 278.348 745.907 276.961 745.434 275.759C744.96 274.556 744.26 273.614 743.332 272.932C742.404 272.25 741.258 271.909 739.894 271.909C738.474 271.909 737.29 272.269 736.343 272.989C735.406 273.708 734.7 274.674 734.227 275.886C733.763 277.098 733.531 278.443 733.531 279.92C733.531 281.436 733.767 282.776 734.241 283.94C734.724 285.096 735.434 286.005 736.371 286.668C737.318 287.321 738.493 287.648 739.894 287.648ZM771.712 252.534V300.375H768.871V252.534H771.712ZM791.616 291V261.909H801.446C803.728 261.909 805.594 262.321 807.043 263.145C808.501 263.959 809.58 265.062 810.281 266.455C810.982 267.847 811.332 269.4 811.332 271.114C811.332 272.828 810.982 274.385 810.281 275.787C809.59 277.188 808.52 278.306 807.071 279.139C805.622 279.963 803.766 280.375 801.503 280.375H794.457V277.25H801.389C802.952 277.25 804.206 276.98 805.153 276.44C806.1 275.901 806.787 275.171 807.213 274.253C807.649 273.325 807.866 272.278 807.866 271.114C807.866 269.949 807.649 268.907 807.213 267.989C806.787 267.07 806.096 266.35 805.139 265.83C804.183 265.299 802.914 265.034 801.332 265.034H795.139V291H791.616ZM816.553 291V269.182H819.791V272.477H820.018C820.416 271.398 821.136 270.522 822.178 269.849C823.219 269.177 824.393 268.841 825.7 268.841C825.946 268.841 826.254 268.846 826.624 268.855C826.993 268.865 827.272 268.879 827.462 268.898V272.307C827.348 272.278 827.088 272.236 826.68 272.179C826.283 272.113 825.861 272.08 825.416 272.08C824.356 272.08 823.409 272.302 822.575 272.747C821.751 273.183 821.098 273.789 820.615 274.565C820.142 275.332 819.905 276.208 819.905 277.193V291H816.553ZM839.635 291.455C837.665 291.455 835.937 290.986 834.45 290.048C832.973 289.111 831.818 287.799 830.984 286.114C830.161 284.428 829.749 282.458 829.749 280.205C829.749 277.932 830.161 275.948 830.984 274.253C831.818 272.558 832.973 271.241 834.45 270.304C835.937 269.366 837.665 268.898 839.635 268.898C841.605 268.898 843.328 269.366 844.805 270.304C846.292 271.241 847.447 272.558 848.271 274.253C849.105 275.948 849.521 277.932 849.521 280.205C849.521 282.458 849.105 284.428 848.271 286.114C847.447 287.799 846.292 289.111 844.805 290.048C843.328 290.986 841.605 291.455 839.635 291.455ZM839.635 288.443C841.131 288.443 842.362 288.06 843.328 287.293C844.294 286.526 845.009 285.517 845.473 284.267C845.937 283.017 846.169 281.663 846.169 280.205C846.169 278.746 845.937 277.387 845.473 276.128C845.009 274.868 844.294 273.85 843.328 273.074C842.362 272.297 841.131 271.909 839.635 271.909C838.139 271.909 836.908 272.297 835.942 273.074C834.976 273.85 834.261 274.868 833.797 276.128C833.333 277.387 833.101 278.746 833.101 280.205C833.101 281.663 833.333 283.017 833.797 284.267C834.261 285.517 834.976 286.526 835.942 287.293C836.908 288.06 838.139 288.443 839.635 288.443ZM864.127 269.182V272.023H852.82V269.182H864.127ZM856.116 263.955H859.468V284.75C859.468 285.697 859.605 286.407 859.88 286.881C860.164 287.345 860.524 287.657 860.96 287.818C861.405 287.97 861.873 288.045 862.366 288.045C862.735 288.045 863.038 288.027 863.275 287.989C863.512 287.941 863.701 287.903 863.843 287.875L864.525 290.886C864.298 290.972 863.98 291.057 863.573 291.142C863.166 291.237 862.65 291.284 862.025 291.284C861.078 291.284 860.15 291.08 859.241 290.673C858.341 290.266 857.593 289.646 856.996 288.812C856.409 287.979 856.116 286.928 856.116 285.659V263.955ZM877.799 291.455C875.829 291.455 874.101 290.986 872.614 290.048C871.137 289.111 869.982 287.799 869.148 286.114C868.325 284.428 867.913 282.458 867.913 280.205C867.913 277.932 868.325 275.948 869.148 274.253C869.982 272.558 871.137 271.241 872.614 270.304C874.101 269.366 875.829 268.898 877.799 268.898C879.769 268.898 881.492 269.366 882.969 270.304C884.456 271.241 885.612 272.558 886.435 274.253C887.269 275.948 887.685 277.932 887.685 280.205C887.685 282.458 887.269 284.428 886.435 286.114C885.612 287.799 884.456 289.111 882.969 290.048C881.492 290.986 879.769 291.455 877.799 291.455ZM877.799 288.443C879.295 288.443 880.526 288.06 881.492 287.293C882.458 286.526 883.173 285.517 883.637 284.267C884.101 283.017 884.333 281.663 884.333 280.205C884.333 278.746 884.101 277.387 883.637 276.128C883.173 274.868 882.458 273.85 881.492 273.074C880.526 272.297 879.295 271.909 877.799 271.909C876.303 271.909 875.072 272.297 874.106 273.074C873.14 273.85 872.425 274.868 871.961 276.128C871.497 277.387 871.265 278.746 871.265 280.205C871.265 281.663 871.497 283.017 871.961 284.267C872.425 285.517 873.14 286.526 874.106 287.293C875.072 288.06 876.303 288.443 877.799 288.443ZM902.291 269.182V272.023H890.984V269.182H902.291ZM894.28 263.955H897.632V284.75C897.632 285.697 897.769 286.407 898.044 286.881C898.328 287.345 898.688 287.657 899.124 287.818C899.569 287.97 900.037 288.045 900.53 288.045C900.899 288.045 901.202 288.027 901.439 287.989C901.676 287.941 901.865 287.903 902.007 287.875L902.689 290.886C902.462 290.972 902.144 291.057 901.737 291.142C901.33 291.237 900.814 291.284 900.189 291.284C899.242 291.284 898.314 291.08 897.405 290.673C896.505 290.266 895.757 289.646 895.161 288.812C894.573 287.979 894.28 286.928 894.28 285.659V263.955ZM909.493 299.182C908.925 299.182 908.418 299.134 907.973 299.04C907.528 298.955 907.22 298.869 907.05 298.784L907.902 295.83C908.716 296.038 909.436 296.114 910.061 296.057C910.686 296 911.24 295.721 911.723 295.219C912.215 294.726 912.665 293.926 913.072 292.818L913.697 291.114L905.629 269.182H909.266L915.288 286.568H915.516L921.538 269.182H925.175L915.913 294.182C915.497 295.309 914.981 296.241 914.365 296.98C913.75 297.728 913.035 298.282 912.22 298.642C911.415 299.002 910.506 299.182 909.493 299.182ZM929.599 299.182V269.182H932.838V272.648H933.236C933.482 272.269 933.823 271.786 934.259 271.199C934.704 270.602 935.338 270.072 936.162 269.608C936.995 269.134 938.122 268.898 939.543 268.898C941.38 268.898 942.999 269.357 944.401 270.276C945.802 271.194 946.896 272.496 947.682 274.182C948.468 275.867 948.861 277.856 948.861 280.148C948.861 282.458 948.468 284.461 947.682 286.156C946.896 287.842 945.807 289.149 944.415 290.077C943.023 290.995 941.418 291.455 939.599 291.455C938.198 291.455 937.076 291.223 936.233 290.759C935.39 290.285 934.741 289.75 934.287 289.153C933.832 288.547 933.482 288.045 933.236 287.648H932.952V299.182H929.599ZM932.895 280.091C932.895 281.739 933.136 283.192 933.619 284.452C934.102 285.702 934.808 286.682 935.736 287.392C936.664 288.093 937.8 288.443 939.145 288.443C940.546 288.443 941.716 288.074 942.653 287.335C943.6 286.587 944.311 285.583 944.784 284.324C945.267 283.055 945.509 281.644 945.509 280.091C945.509 278.557 945.272 277.174 944.798 275.943C944.334 274.703 943.629 273.723 942.682 273.003C941.744 272.274 940.565 271.909 939.145 271.909C937.781 271.909 936.635 272.255 935.707 272.946C934.779 273.628 934.079 274.584 933.605 275.815C933.132 277.037 932.895 278.462 932.895 280.091ZM953.974 291V269.182H957.327V291H953.974ZM955.679 265.545C955.026 265.545 954.462 265.323 953.989 264.878C953.525 264.433 953.293 263.898 953.293 263.273C953.293 262.648 953.525 262.113 953.989 261.668C954.462 261.223 955.026 261 955.679 261C956.332 261 956.891 261.223 957.355 261.668C957.829 262.113 958.065 262.648 958.065 263.273C958.065 263.898 957.829 264.433 957.355 264.878C956.891 265.323 956.332 265.545 955.679 265.545ZM966.819 277.875V291H963.467V269.182H966.705V272.591H966.989C967.501 271.483 968.277 270.593 969.319 269.92C970.361 269.239 971.705 268.898 973.353 268.898C974.83 268.898 976.123 269.201 977.231 269.807C978.339 270.403 979.201 271.312 979.816 272.534C980.432 273.746 980.739 275.28 980.739 277.136V291H977.387V277.364C977.387 275.65 976.942 274.314 976.052 273.358C975.162 272.392 973.94 271.909 972.387 271.909C971.317 271.909 970.361 272.141 969.518 272.605C968.684 273.069 968.026 273.746 967.543 274.636C967.06 275.527 966.819 276.606 966.819 277.875ZM995.672 299.636C994.053 299.636 992.661 299.428 991.496 299.011C990.331 298.604 989.36 298.064 988.584 297.392C987.817 296.729 987.206 296.019 986.751 295.261L989.422 293.386C989.725 293.784 990.108 294.239 990.572 294.75C991.036 295.271 991.671 295.721 992.476 296.099C993.29 296.488 994.356 296.682 995.672 296.682C997.433 296.682 998.887 296.256 1000.03 295.403C1001.18 294.551 1001.75 293.216 1001.75 291.398V286.966H1001.47C1001.22 287.364 1000.87 287.856 1000.42 288.443C999.971 289.021 999.327 289.537 998.484 289.991C997.651 290.437 996.524 290.659 995.104 290.659C993.342 290.659 991.761 290.242 990.359 289.409C988.967 288.576 987.864 287.364 987.05 285.773C986.245 284.182 985.842 282.25 985.842 279.977C985.842 277.742 986.235 275.796 987.021 274.139C987.807 272.473 988.901 271.185 990.303 270.276C991.704 269.357 993.323 268.898 995.161 268.898C996.581 268.898 997.708 269.134 998.541 269.608C999.384 270.072 1000.03 270.602 1000.47 271.199C1000.93 271.786 1001.28 272.269 1001.52 272.648H1001.87V269.182H1005.1V291.625C1005.1 293.5 1004.68 295.025 1003.83 296.199C1002.98 297.383 1001.85 298.249 1000.42 298.798C998.996 299.357 997.414 299.636 995.672 299.636ZM995.558 287.648C996.903 287.648 998.039 287.34 998.967 286.724C999.895 286.109 1000.6 285.223 1001.08 284.068C1001.57 282.913 1001.81 281.53 1001.81 279.92C1001.81 278.348 1001.57 276.961 1001.1 275.759C1000.62 274.556 999.924 273.614 998.996 272.932C998.068 272.25 996.922 271.909 995.558 271.909C994.138 271.909 992.954 272.269 992.007 272.989C991.07 273.708 990.364 274.674 989.891 275.886C989.427 277.098 989.195 278.443 989.195 279.92C989.195 281.436 989.431 282.776 989.905 283.94C990.388 285.096 991.098 286.005 992.036 286.668C992.982 287.321 994.157 287.648 995.558 287.648ZM1027.38 252.534V300.375H1024.54V252.534H1027.38ZM1063.19 269.182C1063.02 267.742 1062.33 266.625 1061.12 265.83C1059.9 265.034 1058.42 264.636 1056.66 264.636C1055.37 264.636 1054.24 264.845 1053.27 265.261C1052.32 265.678 1051.57 266.251 1051.03 266.98C1050.5 267.709 1050.24 268.538 1050.24 269.466C1050.24 270.242 1050.42 270.91 1050.79 271.469C1051.17 272.018 1051.65 272.477 1052.24 272.847C1052.83 273.206 1053.44 273.505 1054.08 273.741C1054.73 273.969 1055.32 274.153 1055.86 274.295L1058.81 275.091C1059.57 275.29 1060.42 275.564 1061.34 275.915C1062.28 276.265 1063.18 276.743 1064.03 277.349C1064.89 277.946 1065.6 278.713 1066.16 279.651C1066.72 280.588 1067 281.739 1067 283.102C1067 284.674 1066.58 286.095 1065.76 287.364C1064.95 288.633 1063.75 289.641 1062.18 290.389C1060.62 291.137 1058.72 291.511 1056.49 291.511C1054.4 291.511 1052.6 291.175 1051.07 290.503C1049.56 289.83 1048.36 288.893 1047.49 287.69C1046.63 286.488 1046.14 285.091 1046.03 283.5H1049.67C1049.76 284.598 1050.13 285.508 1050.77 286.227C1051.43 286.937 1052.25 287.468 1053.25 287.818C1054.25 288.159 1055.33 288.33 1056.49 288.33C1057.83 288.33 1059.04 288.112 1060.11 287.676C1061.18 287.231 1062.02 286.616 1062.65 285.83C1063.27 285.034 1063.59 284.106 1063.59 283.045C1063.59 282.08 1063.32 281.294 1062.78 280.688C1062.24 280.081 1061.53 279.589 1060.65 279.21C1059.77 278.831 1058.81 278.5 1057.79 278.216L1054.21 277.193C1051.94 276.54 1050.14 275.607 1048.81 274.395C1047.49 273.183 1046.83 271.597 1046.83 269.636C1046.83 268.008 1047.27 266.587 1048.15 265.375C1049.04 264.153 1050.23 263.206 1051.73 262.534C1053.23 261.852 1054.91 261.511 1056.77 261.511C1058.64 261.511 1060.31 261.848 1061.77 262.52C1063.23 263.183 1064.38 264.092 1065.24 265.247C1066.1 266.402 1066.55 267.714 1066.6 269.182H1063.19ZM1081.48 291.455C1079.38 291.455 1077.57 290.991 1076.04 290.062C1074.53 289.125 1073.36 287.818 1072.53 286.142C1071.72 284.456 1071.31 282.496 1071.31 280.261C1071.31 278.027 1071.72 276.057 1072.53 274.352C1073.36 272.638 1074.5 271.303 1075.97 270.347C1077.45 269.381 1079.17 268.898 1081.14 268.898C1082.28 268.898 1083.4 269.087 1084.51 269.466C1085.62 269.845 1086.62 270.46 1087.53 271.312C1088.44 272.155 1089.17 273.273 1089.71 274.665C1090.25 276.057 1090.52 277.771 1090.52 279.807V281.227H1073.7V278.33H1087.11C1087.11 277.098 1086.86 276 1086.37 275.034C1085.88 274.068 1085.19 273.306 1084.29 272.747C1083.4 272.188 1082.35 271.909 1081.14 271.909C1079.81 271.909 1078.65 272.241 1077.67 272.903C1076.71 273.557 1075.97 274.409 1075.44 275.46C1074.92 276.511 1074.66 277.638 1074.66 278.841V280.773C1074.66 282.42 1074.95 283.817 1075.52 284.963C1076.09 286.099 1076.89 286.966 1077.92 287.562C1078.94 288.15 1080.13 288.443 1081.48 288.443C1082.36 288.443 1083.16 288.32 1083.87 288.074C1084.59 287.818 1085.21 287.439 1085.73 286.938C1086.25 286.426 1086.65 285.792 1086.94 285.034L1090.17 285.943C1089.83 287.042 1089.26 288.008 1088.46 288.841C1087.65 289.665 1086.66 290.309 1085.47 290.773C1084.29 291.227 1082.96 291.455 1081.48 291.455ZM1095.62 291V269.182H1098.85V272.477H1099.08C1099.48 271.398 1100.2 270.522 1101.24 269.849C1102.28 269.177 1103.46 268.841 1104.76 268.841C1105.01 268.841 1105.32 268.846 1105.69 268.855C1106.06 268.865 1106.33 268.879 1106.52 268.898V272.307C1106.41 272.278 1106.15 272.236 1105.74 272.179C1105.35 272.113 1104.92 272.08 1104.48 272.08C1103.42 272.08 1102.47 272.302 1101.64 272.747C1100.81 273.183 1100.16 273.789 1099.68 274.565C1099.2 275.332 1098.97 276.208 1098.97 277.193V291H1095.62ZM1110.5 291V269.182H1113.85V291H1110.5ZM1112.2 265.545C1111.55 265.545 1110.99 265.323 1110.51 264.878C1110.05 264.433 1109.82 263.898 1109.82 263.273C1109.82 262.648 1110.05 262.113 1110.51 261.668C1110.99 261.223 1111.55 261 1112.2 261C1112.86 261 1113.41 261.223 1113.88 261.668C1114.35 262.113 1114.59 262.648 1114.59 263.273C1114.59 263.898 1114.35 264.433 1113.88 264.878C1113.41 265.323 1112.86 265.545 1112.2 265.545ZM1129.14 291.455C1127.04 291.455 1125.22 290.991 1123.7 290.062C1122.18 289.125 1121.01 287.818 1120.19 286.142C1119.37 284.456 1118.97 282.496 1118.97 280.261C1118.97 278.027 1119.37 276.057 1120.19 274.352C1121.01 272.638 1122.16 271.303 1123.63 270.347C1125.1 269.381 1126.83 268.898 1128.8 268.898C1129.93 268.898 1131.06 269.087 1132.16 269.466C1133.27 269.845 1134.28 270.46 1135.19 271.312C1136.1 272.155 1136.82 273.273 1137.36 274.665C1137.9 276.057 1138.17 277.771 1138.17 279.807V281.227H1121.35V278.33H1134.76C1134.76 277.098 1134.52 276 1134.02 275.034C1133.54 274.068 1132.85 273.306 1131.95 272.747C1131.06 272.188 1130.01 271.909 1128.8 271.909C1127.46 271.909 1126.31 272.241 1125.33 272.903C1124.37 273.557 1123.62 274.409 1123.1 275.46C1122.58 276.511 1122.32 277.638 1122.32 278.841V280.773C1122.32 282.42 1122.6 283.817 1123.17 284.963C1123.75 286.099 1124.55 286.966 1125.57 287.562C1126.6 288.15 1127.78 288.443 1129.14 288.443C1130.02 288.443 1130.81 288.32 1131.52 288.074C1132.24 287.818 1132.86 287.439 1133.38 286.938C1133.91 286.426 1134.31 285.792 1134.59 285.034L1137.83 285.943C1137.49 287.042 1136.92 288.008 1136.11 288.841C1135.31 289.665 1134.31 290.309 1133.13 290.773C1131.95 291.227 1130.62 291.455 1129.14 291.455ZM1158.73 274.068L1155.71 274.92C1155.53 274.419 1155.25 273.931 1154.88 273.457C1154.52 272.974 1154.02 272.577 1153.4 272.264C1152.77 271.952 1151.97 271.795 1151 271.795C1149.66 271.795 1148.55 272.103 1147.66 272.719C1146.78 273.325 1146.34 274.097 1146.34 275.034C1146.34 275.867 1146.64 276.526 1147.25 277.009C1147.85 277.491 1148.8 277.894 1150.09 278.216L1153.33 279.011C1155.28 279.485 1156.73 280.209 1157.69 281.185C1158.65 282.151 1159.12 283.396 1159.12 284.92C1159.12 286.17 1158.76 287.288 1158.04 288.273C1157.33 289.258 1156.34 290.034 1155.06 290.602C1153.78 291.17 1152.3 291.455 1150.6 291.455C1148.38 291.455 1146.53 290.972 1145.08 290.006C1143.62 289.04 1142.69 287.629 1142.31 285.773L1145.49 284.977C1145.79 286.152 1146.36 287.032 1147.21 287.619C1148.06 288.206 1149.17 288.5 1150.54 288.5C1152.11 288.5 1153.35 288.169 1154.27 287.506C1155.19 286.833 1155.66 286.028 1155.66 285.091C1155.66 284.333 1155.39 283.699 1154.86 283.188C1154.33 282.667 1153.52 282.278 1152.42 282.023L1148.78 281.17C1146.78 280.697 1145.32 279.963 1144.38 278.969C1143.45 277.965 1142.99 276.71 1142.99 275.205C1142.99 273.973 1143.33 272.884 1144.02 271.938C1144.72 270.991 1145.68 270.247 1146.88 269.707C1148.09 269.168 1149.46 268.898 1151 268.898C1153.16 268.898 1154.85 269.371 1156.08 270.318C1157.32 271.265 1158.21 272.515 1158.73 274.068ZM1175.87 291V261.909H1185.7C1187.99 261.909 1189.85 262.321 1191.3 263.145C1192.76 263.959 1193.84 265.062 1194.54 266.455C1195.24 267.847 1195.59 269.4 1195.59 271.114C1195.59 272.828 1195.24 274.385 1194.54 275.787C1193.85 277.188 1192.78 278.306 1191.33 279.139C1189.88 279.963 1188.02 280.375 1185.76 280.375H1178.72V277.25H1185.65C1187.21 277.25 1188.46 276.98 1189.41 276.44C1190.36 275.901 1191.04 275.171 1191.47 274.253C1191.91 273.325 1192.12 272.278 1192.12 271.114C1192.12 269.949 1191.91 268.907 1191.47 267.989C1191.04 267.07 1190.35 266.35 1189.4 265.83C1188.44 265.299 1187.17 265.034 1185.59 265.034H1179.4V291H1175.87ZM1200.81 291V269.182H1204.05V272.477H1204.28C1204.67 271.398 1205.39 270.522 1206.44 269.849C1207.48 269.177 1208.65 268.841 1209.96 268.841C1210.2 268.841 1210.51 268.846 1210.88 268.855C1211.25 268.865 1211.53 268.879 1211.72 268.898V272.307C1211.61 272.278 1211.35 272.236 1210.94 272.179C1210.54 272.113 1210.12 272.08 1209.67 272.08C1208.61 272.08 1207.67 272.302 1206.83 272.747C1206.01 273.183 1205.36 273.789 1204.87 274.565C1204.4 275.332 1204.16 276.208 1204.16 277.193V291H1200.81ZM1223.89 291.455C1221.92 291.455 1220.19 290.986 1218.71 290.048C1217.23 289.111 1216.08 287.799 1215.24 286.114C1214.42 284.428 1214.01 282.458 1214.01 280.205C1214.01 277.932 1214.42 275.948 1215.24 274.253C1216.08 272.558 1217.23 271.241 1218.71 270.304C1220.19 269.366 1221.92 268.898 1223.89 268.898C1225.86 268.898 1227.59 269.366 1229.06 270.304C1230.55 271.241 1231.71 272.558 1232.53 274.253C1233.36 275.948 1233.78 277.932 1233.78 280.205C1233.78 282.458 1233.36 284.428 1232.53 286.114C1231.71 287.799 1230.55 289.111 1229.06 290.048C1227.59 290.986 1225.86 291.455 1223.89 291.455ZM1223.89 288.443C1225.39 288.443 1226.62 288.06 1227.59 287.293C1228.55 286.526 1229.27 285.517 1229.73 284.267C1230.19 283.017 1230.43 281.663 1230.43 280.205C1230.43 278.746 1230.19 277.387 1229.73 276.128C1229.27 274.868 1228.55 273.85 1227.59 273.074C1226.62 272.297 1225.39 271.909 1223.89 271.909C1222.4 271.909 1221.17 272.297 1220.2 273.074C1219.23 273.85 1218.52 274.868 1218.05 276.128C1217.59 277.387 1217.36 278.746 1217.36 280.205C1217.36 281.663 1217.59 283.017 1218.05 284.267C1218.52 285.517 1219.23 286.526 1220.2 287.293C1221.17 288.06 1222.4 288.443 1223.89 288.443ZM1247.13 291.455C1245.32 291.455 1243.71 290.995 1242.32 290.077C1240.93 289.149 1239.84 287.842 1239.05 286.156C1238.27 284.461 1237.87 282.458 1237.87 280.148C1237.87 277.856 1238.27 275.867 1239.05 274.182C1239.84 272.496 1240.93 271.194 1242.33 270.276C1243.74 269.357 1245.35 268.898 1247.19 268.898C1248.61 268.898 1249.73 269.134 1250.56 269.608C1251.39 270.072 1252.03 270.602 1252.46 271.199C1252.91 271.786 1253.25 272.269 1253.5 272.648H1253.78V261.909H1257.13V291H1253.9V287.648H1253.5C1253.25 288.045 1252.9 288.547 1252.45 289.153C1251.99 289.75 1251.34 290.285 1250.5 290.759C1249.66 291.223 1248.54 291.455 1247.13 291.455ZM1247.59 288.443C1248.93 288.443 1250.07 288.093 1251 287.392C1251.93 286.682 1252.63 285.702 1253.12 284.452C1253.6 283.192 1253.84 281.739 1253.84 280.091C1253.84 278.462 1253.6 277.037 1253.13 275.815C1252.66 274.584 1251.96 273.628 1251.03 272.946C1250.1 272.255 1248.95 271.909 1247.59 271.909C1246.17 271.909 1244.99 272.274 1244.04 273.003C1243.1 273.723 1242.4 274.703 1241.92 275.943C1241.46 277.174 1241.23 278.557 1241.23 280.091C1241.23 281.644 1241.46 283.055 1241.94 284.324C1242.42 285.583 1243.13 286.587 1244.07 287.335C1245.01 288.074 1246.19 288.443 1247.59 288.443ZM1277.49 282.08V269.182H1280.84V291H1277.49V287.307H1277.26C1276.75 288.415 1275.96 289.357 1274.88 290.134C1273.8 290.901 1272.43 291.284 1270.79 291.284C1269.42 291.284 1268.21 290.986 1267.15 290.389C1266.09 289.783 1265.26 288.874 1264.65 287.662C1264.04 286.44 1263.74 284.902 1263.74 283.045V269.182H1267.09V282.818C1267.09 284.409 1267.54 285.678 1268.43 286.625C1269.33 287.572 1270.47 288.045 1271.87 288.045C1272.7 288.045 1273.55 287.832 1274.41 287.406C1275.28 286.98 1276.01 286.327 1276.6 285.446C1277.19 284.565 1277.49 283.443 1277.49 282.08ZM1295.85 291.455C1293.8 291.455 1292.04 290.972 1290.56 290.006C1289.08 289.04 1287.95 287.709 1287.15 286.014C1286.36 284.319 1285.96 282.383 1285.96 280.205C1285.96 277.989 1286.37 276.033 1287.18 274.338C1288 272.634 1289.15 271.303 1290.62 270.347C1292.1 269.381 1293.82 268.898 1295.79 268.898C1297.32 268.898 1298.71 269.182 1299.94 269.75C1301.17 270.318 1302.18 271.114 1302.96 272.136C1303.75 273.159 1304.24 274.352 1304.43 275.716H1301.07C1300.82 274.722 1300.25 273.841 1299.37 273.074C1298.5 272.297 1297.32 271.909 1295.85 271.909C1294.54 271.909 1293.39 272.25 1292.41 272.932C1291.43 273.604 1290.67 274.556 1290.12 275.787C1289.58 277.009 1289.31 278.443 1289.31 280.091C1289.31 281.777 1289.58 283.244 1290.11 284.494C1290.65 285.744 1291.4 286.715 1292.38 287.406C1293.36 288.098 1294.52 288.443 1295.85 288.443C1296.72 288.443 1297.51 288.292 1298.22 287.989C1298.93 287.686 1299.53 287.25 1300.02 286.682C1300.51 286.114 1300.86 285.432 1301.07 284.636H1304.43C1304.24 285.924 1303.77 287.084 1303.02 288.116C1302.28 289.139 1301.3 289.954 1300.08 290.56C1298.87 291.156 1297.46 291.455 1295.85 291.455ZM1318.81 269.182V272.023H1307.51V269.182H1318.81ZM1310.8 263.955H1314.16V284.75C1314.16 285.697 1314.29 286.407 1314.57 286.881C1314.85 287.345 1315.21 287.657 1315.65 287.818C1316.09 287.97 1316.56 288.045 1317.05 288.045C1317.42 288.045 1317.73 288.027 1317.96 287.989C1318.2 287.941 1318.39 287.903 1318.53 287.875L1319.21 290.886C1318.99 290.972 1318.67 291.057 1318.26 291.142C1317.85 291.237 1317.34 291.284 1316.71 291.284C1315.77 291.284 1314.84 291.08 1313.93 290.673C1313.03 290.266 1312.28 289.646 1311.68 288.812C1311.1 287.979 1310.8 286.928 1310.8 285.659V263.955ZM1323.86 291V269.182H1327.21V291H1323.86ZM1325.56 265.545C1324.91 265.545 1324.34 265.323 1323.87 264.878C1323.41 264.433 1323.18 263.898 1323.18 263.273C1323.18 262.648 1323.41 262.113 1323.87 261.668C1324.34 261.223 1324.91 261 1325.56 261C1326.22 261 1326.77 261.223 1327.24 261.668C1327.71 262.113 1327.95 262.648 1327.95 263.273C1327.95 263.898 1327.71 264.433 1327.24 264.878C1326.77 265.323 1326.22 265.545 1325.56 265.545ZM1342.21 291.455C1340.24 291.455 1338.52 290.986 1337.03 290.048C1335.55 289.111 1334.4 287.799 1333.56 286.114C1332.74 284.428 1332.33 282.458 1332.33 280.205C1332.33 277.932 1332.74 275.948 1333.56 274.253C1334.4 272.558 1335.55 271.241 1337.03 270.304C1338.52 269.366 1340.24 268.898 1342.21 268.898C1344.18 268.898 1345.91 269.366 1347.38 270.304C1348.87 271.241 1350.03 272.558 1350.85 274.253C1351.68 275.948 1352.1 277.932 1352.1 280.205C1352.1 282.458 1351.68 284.428 1350.85 286.114C1350.03 287.799 1348.87 289.111 1347.38 290.048C1345.91 290.986 1344.18 291.455 1342.21 291.455ZM1342.21 288.443C1343.71 288.443 1344.94 288.06 1345.91 287.293C1346.87 286.526 1347.59 285.517 1348.05 284.267C1348.52 283.017 1348.75 281.663 1348.75 280.205C1348.75 278.746 1348.52 277.387 1348.05 276.128C1347.59 274.868 1346.87 273.85 1345.91 273.074C1344.94 272.297 1343.71 271.909 1342.21 271.909C1340.72 271.909 1339.49 272.297 1338.52 273.074C1337.55 273.85 1336.84 274.868 1336.38 276.128C1335.91 277.387 1335.68 278.746 1335.68 280.205C1335.68 281.663 1335.91 283.017 1336.38 284.267C1336.84 285.517 1337.55 286.526 1338.52 287.293C1339.49 288.06 1340.72 288.443 1342.21 288.443ZM1360.57 277.875V291H1357.22V269.182H1360.46V272.591H1360.74C1361.25 271.483 1362.03 270.593 1363.07 269.92C1364.11 269.239 1365.46 268.898 1367.1 268.898C1368.58 268.898 1369.87 269.201 1370.98 269.807C1372.09 270.403 1372.95 271.312 1373.57 272.534C1374.18 273.746 1374.49 275.28 1374.49 277.136V291H1371.14V277.364C1371.14 275.65 1370.69 274.314 1369.8 273.358C1368.91 272.392 1367.69 271.909 1366.14 271.909C1365.07 271.909 1364.11 272.141 1363.27 272.605C1362.43 273.069 1361.78 273.746 1361.29 274.636C1360.81 275.527 1360.57 276.606 1360.57 277.875Z" fill="#38618C"/>
</svg>
