<?xml version="1.0" encoding="UTF-8"?>
<svg id="dark" xmlns="http://www.w3.org/2000/svg" viewBox="0 0 1920 430">
  <path d="M242.3,208.15l27.81-84.97h21.08l-24.57,66.76h74.07l-44.12-78.48c-3.81-6.77-10.96-10.96-18.73-10.96h-104.17c-7.76,0-14.92,4.19-18.73,10.96l-52.56,93.5c-3.56,6.33-3.67,14.02-.35,20.44h110.04l-27.81,84.97h-21.08l24.57-66.76h-75.5l42.69,75.94c3.81,6.77,10.96,10.96,18.73,10.96h104.17c7.76,0,14.92-4.19,18.73-10.96l52.56-93.5c3.1-5.51,3.59-12.05,1.46-17.89h-108.3ZM196.45,208.15l2.52-44.21-12.53,44.21h-28.05l1.12-84.98h18.32l-2.15,68.17h2.15l18.6-68.17h18.23l-3.83,68.17h2.15l21.41-68.17h18.35l-28.24,84.98h-28.05ZM294.86,310.37h-18.32l2.15-68.17h-2.15l-18.6,68.17h-18.23l3.83-68.17h-2.15l-21.41,68.17h-18.35l28.24-84.98h28.05l-2.52,44.21,12.53-44.21h28.05l-1.12,84.98Z"/>
  <g>
    <path d="M536.07,122.03l-26.71,97.9h-22.6l-17.94-69.71-18.77,69.71-22.47.14-25.75-98.04h20.55l16.85,76.02,19.45-76.02h21.37l18.36,75.6,16.99-75.6h20.68Z"/>
    <path d="M567.71,137.88v24.54h32.19v15.57h-32.19v25.95h36.3v15.99h-55.48v-98.04h55.48v15.99h-36.3Z"/>
    <path d="M670.72,219.92l-21.1-38.15h-9.04v38.15h-19.18v-97.9h35.89c7.4,0,13.7,1.33,18.9,4,5.21,2.66,9.11,6.27,11.71,10.8,2.6,4.54,3.9,9.61,3.9,15.22,0,6.45-1.83,12.27-5.48,17.46-3.65,5.19-9.09,8.77-16.3,10.73l22.88,39.69h-22.19ZM640.58,167.05h16.03c5.21,0,9.09-1.28,11.64-3.86,2.56-2.57,3.84-6.15,3.84-10.73s-1.28-7.97-3.84-10.45c-2.56-2.48-6.44-3.72-11.64-3.72h-16.03v28.75Z"/>
    <path d="M790.99,219.92h-19.18l-43.42-67.18v67.18h-19.18v-98.04h19.18l43.42,67.32v-67.32h19.18v98.04Z"/>
    <path d="M829.07,137.88v24.54h32.19v15.57h-32.19v25.95h36.3v15.99h-55.48v-98.04h55.48v15.99h-36.3Z"/>
    <path d="M932.08,219.92l-21.09-38.15h-9.04v38.15h-19.18v-97.9h35.89c7.4,0,13.7,1.33,18.9,4,5.21,2.66,9.11,6.27,11.71,10.8,2.6,4.54,3.9,9.61,3.9,15.22,0,6.45-1.83,12.27-5.48,17.46-3.65,5.19-9.09,8.77-16.3,10.73l22.87,39.69h-22.19ZM901.94,167.05h16.03c5.21,0,9.09-1.28,11.64-3.86,2.55-2.57,3.83-6.15,3.83-10.73s-1.28-7.97-3.83-10.45c-2.56-2.48-6.44-3.72-11.64-3.72h-16.03v28.75Z"/>
    <path d="M1022.35,204.36h31.51v15.57h-50.68v-97.9h19.18v82.33Z"/>
    <path d="M1085.22,122.03v97.9h-19.18v-97.9h19.18Z"/>
    <path d="M1105.84,144.96c4.25-7.62,10.04-13.56,17.4-17.81,7.35-4.25,15.59-6.38,24.72-6.38,10.68,0,20.05,2.81,28.08,8.42,8.04,5.61,13.65,13.37,16.85,23.28h-22.05c-2.19-4.67-5.27-8.18-9.25-10.52-3.97-2.34-8.56-3.51-13.77-3.51-5.57,0-10.53,1.33-14.86,4-4.34,2.67-7.72,6.43-10.14,11.29-2.42,4.86-3.63,10.57-3.63,17.11s1.21,12.13,3.63,17.04c2.42,4.91,5.8,8.7,10.14,11.36,4.34,2.66,9.29,4,14.86,4,5.21,0,9.79-1.19,13.77-3.58,3.97-2.38,7.05-5.91,9.25-10.59h22.05c-3.2,10.01-8.79,17.79-16.78,23.35-7.99,5.56-17.37,8.35-28.15,8.35-9.13,0-17.37-2.13-24.72-6.38-7.35-4.25-13.15-10.17-17.4-17.74-4.25-7.57-6.37-16.18-6.37-25.81s2.12-18.25,6.37-25.88Z"/>
    <path d="M1288.64,122.03v97.9h-19.18v-41.65h-40.96v41.65h-19.18v-97.9h19.18v40.25h40.96v-40.25h19.18Z"/>
    <path d="M1383.57,122.03l-32.33,63.81v34.08h-19.18v-34.08l-32.47-63.81h21.64l20.55,44.74,20.41-44.74h21.37Z"/>
    <path d="M1493.84,151.48c-2.19-4.11-5.21-7.24-9.04-9.4-3.84-2.15-8.31-3.23-13.42-3.23-5.66,0-10.68,1.31-15.07,3.93-4.38,2.62-7.81,6.36-10.27,11.22-2.47,4.86-3.7,10.47-3.7,16.83s1.25,12.25,3.77,17.11c2.51,4.86,6,8.6,10.48,11.22,4.47,2.62,9.68,3.93,15.62,3.93,7.3,0,13.29-1.99,17.94-5.96,4.66-3.97,7.72-9.51,9.18-16.62h-32.88v-15.01h51.78v17.11c-1.28,6.83-4.02,13.14-8.22,18.93-4.2,5.8-9.61,10.45-16.23,13.96-6.62,3.51-14.04,5.26-22.26,5.26-9.22,0-17.56-2.13-25-6.38-7.44-4.25-13.29-10.17-17.53-17.74-4.25-7.57-6.37-16.18-6.37-25.81s2.12-18.25,6.37-25.88c4.25-7.62,10.09-13.56,17.53-17.81,7.44-4.25,15.73-6.38,24.86-6.38,10.77,0,20.14,2.69,28.08,8.06,7.94,5.38,13.42,12.93,16.44,22.65h-22.05Z"/>
    <path d="M1636.71,122.03v97.9h-19.18v-63.67l-25.62,63.67h-14.52l-25.75-63.67v63.67h-19.18v-97.9h21.78l30.41,72.79,30.41-72.79h21.64Z"/>
    <path d="M1723.14,177.99c3.47,4.49,5.21,9.63,5.21,15.43,0,5.24-1.26,9.84-3.77,13.81-2.51,3.98-6.14,7.08-10.89,9.33-4.75,2.24-10.37,3.37-16.85,3.37h-41.23v-97.9h39.45c6.48,0,12.08,1.08,16.78,3.23,4.7,2.15,8.26,5.14,10.68,8.98,2.42,3.84,3.63,8.18,3.63,13.04,0,5.7-1.49,10.47-4.45,14.31-2.97,3.84-6.92,6.55-11.85,8.13,5.39,1.03,9.81,3.79,13.29,8.27ZM1674.79,162.42h17.53c4.57,0,8.08-1.05,10.55-3.16s3.7-5.12,3.7-9.05-1.23-6.96-3.7-9.12c-2.47-2.15-5.98-3.23-10.55-3.23h-17.53v24.54ZM1704.99,200.57c2.6-2.24,3.9-5.42,3.9-9.54s-1.37-7.5-4.11-9.89c-2.74-2.38-6.44-3.58-11.1-3.58h-18.9v26.37h19.31c4.66,0,8.29-1.12,10.89-3.37Z"/>
    <path d="M1823,122.03v97.9h-19.18v-41.65h-40.96v41.65h-19.18v-97.9h19.18v40.25h40.96v-40.25h19.18Z"/>
  </g>
  <g>
    <path d="M427.29,269.02h-16.81l-3.93,9.68h-4.72l14.45-34.92h5.34l14.39,34.92h-4.78l-3.93-9.68ZM425.66,265.05l-5-12.38-1.74-4.87h-.11l-1.63,4.71-5.06,12.54h13.55Z"/>
    <path d="M446.96,271.61c0,2.7.73,3.54,3.04,3.54,1.52,0,2.47-.16,4.1-.74l-.73,4.07c-1.18.48-2.7.74-4.16.74-4.55,0-6.75-2.27-6.75-7.09v-32.06h4.5v31.53Z"/>
    <path d="M484.22,252.24v26.45h-3.93l-.28-4.02c-1.97,3.18-5.56,4.55-10.06,4.55-5.56,0-10.34-2.7-10.34-9.68v-17.3h4.5v16.19c0,5.45,2.59,7.09,6.63,7.09,4.78,0,8.99-2.65,8.99-8.89v-14.39h4.5Z"/>
    <path d="M538.06,261.77v16.93h-4.5v-16.51c0-4.81-2.92-6.77-6.63-6.77-4.38,0-8.32,3.12-8.32,8.78v14.5h-4.5v-16.51c0-4.81-2.92-6.77-6.63-6.77s-8.32,2.59-8.32,9.15v14.13h-4.5v-26.45h3.94l.28,4.13c2.02-3.23,5.51-4.66,8.99-4.66,3.93,0,7.81,1.64,9.67,5.19,1.74-3.6,6.24-5.19,9.78-5.19,5.4,0,10.74,3.07,10.74,10.05Z"/>
    <path d="M547.11,243.99c0-1.9,1.35-3.18,3.37-3.18s3.37,1.27,3.37,3.18-1.35,3.17-3.37,3.17-3.37-1.27-3.37-3.17ZM552.73,278.7h-4.5v-26.45h4.5v26.45Z"/>
    <path d="M587.8,261.77v16.93h-4.5v-15.45c0-5.87-3.04-7.83-6.91-7.83-4.1,0-8.71,2.43-8.71,9.21v14.07h-4.5v-26.45h3.94l.28,4.13c1.97-3.33,5.56-4.66,9.44-4.66,6.01,0,10.96,3.23,10.96,10.05Z"/>
    <path d="M596.85,243.99c0-1.9,1.35-3.18,3.37-3.18s3.37,1.27,3.37,3.18-1.35,3.17-3.37,3.17-3.37-1.27-3.37-3.17ZM602.47,278.7h-4.5v-26.45h4.5v26.45Z"/>
    <path d="M637.26,252.24v26.45h-3.93l-.28-4.02c-1.97,3.18-5.56,4.55-10.06,4.55-5.56,0-10.34-2.7-10.34-9.68v-17.3h4.5v16.19c0,5.45,2.59,7.09,6.63,7.09,4.78,0,8.99-2.65,8.99-8.89v-14.39h4.5Z"/>
    <path d="M691.1,261.77v16.93h-4.5v-16.51c0-4.81-2.92-6.77-6.63-6.77-4.38,0-8.32,3.12-8.32,8.78v14.5h-4.5v-16.51c0-4.81-2.92-6.77-6.63-6.77s-8.32,2.59-8.32,9.15v14.13h-4.5v-26.45h3.94l.28,4.13c2.02-3.23,5.51-4.66,8.99-4.66,3.93,0,7.81,1.64,9.67,5.19,1.74-3.6,6.24-5.19,9.78-5.19,5.4,0,10.74,3.07,10.74,10.05Z"/>
    <path d="M736.23,279.23c-10.57,0-17.2-6.93-17.2-17.99s6.74-17.99,17.09-17.99c7.19,0,12.03,2.86,14.39,8.15l-4.44,1.96c-1.63-4.02-4.67-6.14-9.61-6.14-7.59,0-12.7,5.19-12.7,14.02s4.78,14.02,12.48,14.02c4.95,0,8.82-2.38,10.46-7.09l4.5,1.59c-2.36,5.98-7.98,9.47-14.95,9.47Z"/>
    <path d="M784.28,275.36l-.28,3.33c-.79.27-1.97.53-3.37.53-2.75,0-4.55-.95-5.06-3.92-1.8,2.49-5.45,3.92-9.05,3.92-5.28,0-9.56-2.33-9.56-7.09,0-3.97,3.71-7.09,10.96-8.25l7.48-1.16v-1.48c0-3.49-2.36-5.82-6.58-5.82-3.71,0-6.52,1.69-8.04,5.03l-3.32-2.28c1.46-3.92,5.9-6.46,11.35-6.46,6.41,0,11.07,2.86,11.07,9v13.02c0,1.27.56,1.9,2.14,1.9.73,0,1.57-.11,2.25-.27ZM775.4,269.81v-3.65l-6.3,1.11c-4.95.85-7.48,2.38-7.48,4.87,0,2.22,1.91,3.39,5.12,3.39,4.5,0,8.66-2.22,8.66-5.71Z"/>
    <path d="M788.27,273.25l3.65-2.38c1.35,3.23,4.83,4.66,8.88,4.66,4.61,0,6.8-1.75,6.8-3.92,0-1.96-1.74-3.12-7.36-4.07-7.98-1.38-10.91-3.44-10.91-7.88s4.22-7.94,11.07-7.94c6.01,0,9.55,2.01,11.13,6.35l-3.82,2.12c-1.24-3.49-3.77-4.76-7.31-4.76-3.77,0-6.58,1.9-6.58,3.86,0,2.28,1.86,3.44,7.59,4.34,7.87,1.22,10.68,3.44,10.68,7.78,0,4.6-4.55,7.83-11.75,7.83-5.17,0-9.95-1.9-12.09-5.98Z"/>
    <path d="M837.62,276.85c-1.74,1.48-4.16,2.38-7.25,2.38-4.16,0-7.76-1.96-7.81-7.09v-16.24h-5.62v-3.65h5.62v-6.35l4.5-1.16v7.51h10.4v3.65h-10.4v15.5c0,2.59,1.74,3.86,4.22,3.86,2.02,0,3.49-.74,4.78-1.96l1.57,3.54Z"/>
    <path d="M842.84,243.99c0-1.9,1.35-3.18,3.37-3.18s3.37,1.27,3.37,3.18-1.35,3.17-3.37,3.17-3.37-1.27-3.37-3.17ZM848.46,278.7h-4.5v-26.45h4.5v26.45Z"/>
    <path d="M883.53,261.77v16.93h-4.5v-15.45c0-5.87-3.04-7.83-6.91-7.83-4.1,0-8.71,2.43-8.71,9.21v14.07h-4.5v-26.45h3.94l.28,4.13c1.97-3.33,5.56-4.66,9.44-4.66,6.01,0,10.96,3.23,10.96,10.05Z"/>
    <path d="M917.87,281.61c0,5.24-6.3,8.47-13.88,8.47-8.88,0-12.93-3.02-12.93-6.98,0-2.43,1.86-4.34,4.95-5.13-2.14-.95-3.82-2.54-3.82-4.87,0-2.75,1.74-4.39,4.22-5.19-2.7-1.59-4.1-4.18-4.1-7.25,0-5.24,4.78-8.94,11.52-8.94,2.14,0,4.05.37,5.73,1.06,1.07-3.65,3.71-5.4,7.92-5.4l1.01,3.7c-3.77,0-5.9,1.01-6.69,2.91,2.25,1.59,3.54,3.92,3.54,6.67,0,5.24-4.78,8.94-11.52,8.94-1.63,0-3.09-.16-4.33-.48-2.25.48-3.15,1.54-3.15,3.33s1.52,2.86,3.71,2.86h9.33c5.34,0,8.49,2.49,8.49,6.3ZM913.71,282.08c0-1.9-1.35-3.12-5.56-3.12h-7.53c-3.54,0-5.4,1.27-5.4,3.28,0,2.59,3.09,4.28,9.27,4.28s9.22-2.12,9.22-4.44ZM896.96,260.66c0,3.28,2.98,5.5,6.86,5.5s6.86-2.22,6.86-5.5-2.98-5.5-6.86-5.5-6.86,2.22-6.86,5.5Z"/>
    <path d="M947.26,287.59h-3.88v-47.51h3.88v47.51Z"/>
    <path d="M1002.96,254.41c0,6.56-5,10.63-12.48,10.63h-8.6v13.65h-4.5v-34.92h13.1c7.48,0,12.48,4.07,12.48,10.63ZM998.24,254.41c0-4.34-2.59-6.67-8.43-6.67h-7.92v13.33h7.92c5.85,0,8.43-2.33,8.43-6.67Z"/>
    <path d="M1027.18,252.24l-.9,4.13c-.84-.42-2.08-.69-3.54-.69-3.37,0-7.42,2.8-7.42,8.73v14.28h-4.5v-26.45h3.65l.62,4.34c1.57-3.23,4.61-4.87,8.99-4.87.96,0,2.25.11,3.09.53Z"/>
    <path d="M1058.32,265.47c0,8.57-5.12,13.76-13.6,13.76s-13.6-5.18-13.6-13.76,5.12-13.76,13.6-13.76,13.6,5.19,13.6,13.76ZM1035.61,265.47c0,6.3,3.43,10.11,9.11,10.11s9.11-3.81,9.11-10.11-3.43-10.11-9.11-10.11-9.11,3.81-9.11,10.11Z"/>
    <path d="M1083.72,276.85c-1.74,1.48-4.16,2.38-7.25,2.38-4.16,0-7.76-1.96-7.81-7.09v-16.24h-5.62v-3.65h5.62v-6.35l4.5-1.16v7.51h10.4v3.65h-10.4v15.5c0,2.59,1.74,3.86,4.22,3.86,2.02,0,3.49-.74,4.78-1.96l1.57,3.54Z"/>
    <path d="M1115.53,265.47c0,8.57-5.12,13.76-13.6,13.76s-13.6-5.18-13.6-13.76,5.12-13.76,13.6-13.76,13.6,5.19,13.6,13.76ZM1092.83,265.47c0,6.3,3.43,10.11,9.11,10.11s9.11-3.81,9.11-10.11-3.43-10.11-9.11-10.11-9.11,3.81-9.11,10.11Z"/>
    <path d="M1140.94,276.85c-1.74,1.48-4.16,2.38-7.25,2.38-4.16,0-7.76-1.96-7.81-7.09v-16.24h-5.62v-3.65h5.62v-6.35l4.5-1.16v7.51h10.4v3.65h-10.4v15.5c0,2.59,1.74,3.86,4.22,3.86,2.02,0,3.49-.74,4.78-1.96l1.57,3.54Z"/>
    <path d="M1157.97,283.14c-2.19,5.19-4.72,6.93-8.88,6.93-2.81,0-4.61-.64-6.18-2.22l1.57-3.6c1.29,1.69,2.98,2.12,4.55,2.12,1.97,0,3.71-.79,5.12-4.29l1.46-3.44-11.75-26.4h5.11l7.03,17.25,1.74,4.71,2.02-5.24,6.58-16.72h4.83l-13.21,30.9Z"/>
    <path d="M1204,265.47c0,8.62-5,13.76-12.82,13.76-4.22,0-7.59-1.9-9.33-4.66v15.24h-4.5v-37.56h3.94l.28,4.6c1.63-3.02,5.17-5.13,9.61-5.13,7.81,0,12.82,5.13,12.82,13.76ZM1199.5,265.47c0-6.14-3.32-10.05-8.82-10.05s-8.82,3.76-8.82,9.74v.64c0,5.98,3.49,9.74,8.82,9.74s8.82-3.92,8.82-10.05Z"/>
    <path d="M1211.64,243.99c0-1.9,1.35-3.18,3.37-3.18s3.37,1.27,3.37,3.18-1.35,3.17-3.37,3.17-3.37-1.27-3.37-3.17ZM1217.26,278.7h-4.5v-26.45h4.5v26.45Z"/>
    <path d="M1252.33,261.77v16.93h-4.5v-15.45c0-5.87-3.04-7.83-6.91-7.83-4.1,0-8.71,2.43-8.71,9.21v14.07h-4.5v-26.45h3.94l.28,4.13c1.97-3.33,5.56-4.66,9.44-4.66,6.01,0,10.96,3.23,10.96,10.05Z"/>
    <path d="M1286.67,281.61c0,5.24-6.3,8.47-13.88,8.47-8.88,0-12.93-3.02-12.93-6.98,0-2.43,1.86-4.34,4.95-5.13-2.14-.95-3.82-2.54-3.82-4.87,0-2.75,1.74-4.39,4.22-5.19-2.7-1.59-4.1-4.18-4.1-7.25,0-5.24,4.78-8.94,11.52-8.94,2.14,0,4.05.37,5.73,1.06,1.07-3.65,3.71-5.4,7.92-5.4l1.01,3.7c-3.77,0-5.9,1.01-6.69,2.91,2.25,1.59,3.54,3.92,3.54,6.67,0,5.24-4.78,8.94-11.52,8.94-1.63,0-3.09-.16-4.33-.48-2.25.48-3.15,1.54-3.15,3.33s1.52,2.86,3.71,2.86h9.33c5.34,0,8.49,2.49,8.49,6.3ZM1282.51,282.08c0-1.9-1.35-3.12-5.56-3.12h-7.53c-3.54,0-5.4,1.27-5.4,3.28,0,2.59,3.09,4.28,9.27,4.28s9.22-2.12,9.22-4.44ZM1265.76,260.66c0,3.28,2.98,5.5,6.86,5.5s6.86-2.22,6.86-5.5-2.98-5.5-6.86-5.5-6.86,2.22-6.86,5.5Z"/>
    <path d="M1316.06,287.59h-3.88v-47.51h3.88v47.51Z"/>
    <path d="M1372.43,250.66l-3.88,2.96c-2.25-4.6-4.95-6.4-10.4-6.4-5.9,0-9.16,2.59-9.16,5.93s2.47,4.92,10.29,6.19c9.95,1.59,13.49,4.55,13.49,9.95,0,5.98-5.68,9.95-14.33,9.95-7.87,0-13.04-3.23-15.63-7.57l3.88-2.96c1.97,4.02,5.79,6.56,11.86,6.56,5.73,0,9.55-2.01,9.55-5.77,0-3.02-2.42-4.76-10.23-6.03-10.01-1.64-13.6-4.5-13.6-9.84,0-5.61,5.23-10.37,13.83-10.37,6.8,0,11.47,2.54,14.33,7.41Z"/>
    <path d="M1405.25,267.06h-21.19c.56,5.34,3.99,8.47,9.16,8.47,4.1,0,6.91-1.38,7.93-3.92l3.77,1.85c-2.14,3.6-5.62,5.77-11.69,5.77-8.49,0-13.6-5.18-13.6-13.76s4.78-13.76,13.27-13.76,12.59,5.56,12.59,12.38c0,1.22-.11,2.22-.22,2.96ZM1384.12,263.3h17.03c-.62-4.87-3.49-7.88-8.26-7.88s-8.09,2.91-8.77,7.88Z"/>
    <path d="M1430.37,252.24l-.9,4.13c-.84-.42-2.08-.69-3.54-.69-3.37,0-7.42,2.8-7.42,8.73v14.28h-4.5v-26.45h3.65l.62,4.34c1.57-3.23,4.61-4.87,8.99-4.87.96,0,2.25.11,3.09.53Z"/>
    <path d="M1435.82,243.99c0-1.9,1.35-3.18,3.37-3.18s3.37,1.27,3.37,3.18-1.35,3.17-3.37,3.17-3.37-1.27-3.37-3.17ZM1441.44,278.7h-4.5v-26.45h4.5v26.45Z"/>
    <path d="M1475.79,267.06h-21.19c.56,5.34,3.99,8.47,9.16,8.47,4.1,0,6.91-1.38,7.93-3.92l3.77,1.85c-2.14,3.6-5.62,5.77-11.69,5.77-8.49,0-13.6-5.18-13.6-13.76s4.78-13.76,13.27-13.76,12.59,5.56,12.59,12.38c0,1.22-.11,2.22-.22,2.96ZM1454.65,263.3h17.03c-.62-4.87-3.49-7.88-8.26-7.88s-8.09,2.91-8.77,7.88Z"/>
    <path d="M1482.02,273.25l3.65-2.38c1.35,3.23,4.83,4.66,8.88,4.66,4.61,0,6.8-1.75,6.8-3.92,0-1.96-1.74-3.12-7.36-4.07-7.98-1.38-10.91-3.44-10.91-7.88s4.22-7.94,11.07-7.94c6.01,0,9.55,2.01,11.13,6.35l-3.82,2.12c-1.24-3.49-3.77-4.76-7.31-4.76-3.77,0-6.58,1.9-6.58,3.86,0,2.28,1.86,3.44,7.59,4.34,7.87,1.22,10.68,3.44,10.68,7.78,0,4.6-4.55,7.83-11.75,7.83-5.17,0-9.95-1.9-12.09-5.98Z"/>
    <path d="M1559.75,254.41c0,6.56-5,10.63-12.48,10.63h-8.6v13.65h-4.5v-34.92h13.1c7.48,0,12.48,4.07,12.48,10.63ZM1555.03,254.41c0-4.34-2.59-6.67-8.43-6.67h-7.92v13.33h7.92c5.85,0,8.43-2.33,8.43-6.67Z"/>
    <path d="M1583.97,252.24l-.9,4.13c-.84-.42-2.08-.69-3.54-.69-3.37,0-7.42,2.8-7.42,8.73v14.28h-4.5v-26.45h3.65l.62,4.34c1.57-3.23,4.61-4.87,8.99-4.87.96,0,2.25.11,3.09.53Z"/>
    <path d="M1615.11,265.47c0,8.57-5.12,13.76-13.6,13.76s-13.6-5.18-13.6-13.76,5.12-13.76,13.6-13.76,13.6,5.19,13.6,13.76ZM1592.4,265.47c0,6.3,3.43,10.11,9.11,10.11s9.11-3.81,9.11-10.11-3.43-10.11-9.11-10.11-9.11,3.81-9.11,10.11Z"/>
    <path d="M1648.78,240.07v38.62h-3.94l-.28-4.6c-1.63,3.02-5.17,5.13-9.61,5.13-7.81,0-12.82-5.13-12.82-13.76s5-13.76,12.82-13.76c4.22,0,7.59,1.9,9.33,4.66v-16.3h4.5ZM1644.28,265.79v-.64c0-5.98-3.49-9.74-8.82-9.74s-8.82,3.92-8.82,10.05,3.32,10.05,8.82,10.05,8.82-3.76,8.82-9.74Z"/>
    <path d="M1683.56,252.24v26.45h-3.94l-.28-4.02c-1.97,3.18-5.56,4.55-10.06,4.55-5.56,0-10.34-2.7-10.34-9.68v-17.3h4.5v16.19c0,5.45,2.59,7.09,6.63,7.09,4.78,0,8.99-2.65,8.99-8.89v-14.39h4.5Z"/>
    <path d="M1717.51,258.75l-4.27,1.9c-1.18-3.39-3.6-5.24-7.48-5.24-5.62,0-8.99,3.76-8.99,10.05s3.37,10.05,8.99,10.05c4.38,0,7.03-1.96,7.87-5.45l4.16,1.38c-1.91,4.87-5.96,7.78-11.92,7.78-8.49,0-13.6-5.18-13.6-13.76s5.12-13.76,13.6-13.76c5.79,0,9.56,2.7,11.64,7.04Z"/>
    <path d="M1742.91,276.85c-1.74,1.48-4.16,2.38-7.25,2.38-4.16,0-7.76-1.96-7.81-7.09v-16.24h-5.62v-3.65h5.62v-6.35l4.5-1.16v7.51h10.4v3.65h-10.4v15.5c0,2.59,1.74,3.86,4.22,3.86,2.02,0,3.49-.74,4.78-1.96l1.57,3.54Z"/>
    <path d="M1748.14,243.99c0-1.9,1.35-3.18,3.37-3.18s3.37,1.27,3.37,3.18-1.35,3.17-3.37,3.17-3.37-1.27-3.37-3.17ZM1753.76,278.7h-4.5v-26.45h4.5v26.45Z"/>
    <path d="M1789.67,265.47c0,8.57-5.12,13.76-13.6,13.76s-13.6-5.18-13.6-13.76,5.12-13.76,13.6-13.76,13.6,5.19,13.6,13.76ZM1766.96,265.47c0,6.3,3.43,10.11,9.11,10.11s9.11-3.81,9.11-10.11-3.43-10.11-9.11-10.11-9.11,3.81-9.11,10.11Z"/>
    <path d="M1823,261.77v16.93h-4.5v-15.45c0-5.87-3.04-7.83-6.91-7.83-4.1,0-8.71,2.43-8.71,9.21v14.07h-4.5v-26.45h3.94l.28,4.13c1.97-3.33,5.56-4.66,9.44-4.66,6.01,0,10.96,3.23,10.96,10.05Z"/>
  </g>
</svg>