<?xml version="1.0" encoding="UTF-8"?>
<svg id="color" xmlns="http://www.w3.org/2000/svg" viewBox="0 0 1723.37 235.75">
  <defs>
    <style>
      .cls-1 {
        fill: #38618c;
      }

      .cls-2 {
        fill: #a3a8ac;
      }
    </style>
  </defs>
  <path class="cls-1" d="M142.67,113.4l27.81-84.97h21.08l-24.57,66.76h74.07l-44.12-78.48c-3.81-6.77-10.96-10.96-18.73-10.96h-104.17c-7.76,0-14.92,4.19-18.73,10.96L2.76,110.21c-3.56,6.33-3.67,14.02-.35,20.44h110.04l-27.81,84.97h-21.08l24.57-66.76H12.63l42.69,75.94c3.81,6.77,10.96,10.96,18.73,10.96h104.17c7.76,0,14.92-4.19,18.73-10.96l52.56-93.5c3.1-5.51,3.59-12.05,1.46-17.89h-108.3ZM96.82,113.4l2.52-44.21-12.53,44.21h-28.05l1.12-84.98h18.32l-2.15,68.17h2.15l18.6-68.17h18.23l-3.83,68.17h2.15l21.41-68.17h18.35l-28.24,84.98h-28.05ZM195.24,215.63h-18.32l2.15-68.17h-2.15l-18.6,68.17h-18.23l3.83-68.17h-2.15l-21.41,68.17h-18.35l28.24-84.98h28.05l-2.52,44.21,12.53-44.21h28.05l-1.12,84.98Z"/>
  <g>
    <path class="cls-2" d="M436.44,27.28l-26.71,97.9h-22.6l-17.94-69.71-18.77,69.71-22.47,.14-25.75-98.04h20.55l16.85,76.02,19.45-76.02h21.37l18.36,75.6,16.99-75.6h20.68Z"/>
    <path class="cls-2" d="M468.08,43.13v24.54h32.19v15.57h-32.19v25.95h36.3v15.99h-55.48V27.14h55.48v15.99h-36.3Z"/>
    <path class="cls-2" d="M571.09,125.18l-21.1-38.15h-9.04v38.15h-19.18V27.28h35.89c7.4,0,13.7,1.33,18.9,4,5.21,2.66,9.11,6.27,11.71,10.8,2.6,4.54,3.9,9.61,3.9,15.22,0,6.45-1.83,12.27-5.48,17.46-3.65,5.19-9.09,8.77-16.3,10.73l22.88,39.69h-22.19ZM540.96,72.3h16.03c5.21,0,9.09-1.28,11.64-3.86,2.56-2.57,3.84-6.15,3.84-10.73s-1.28-7.97-3.84-10.45c-2.56-2.48-6.44-3.72-11.64-3.72h-16.03v28.75Z"/>
    <path class="cls-2" d="M691.36,125.18h-19.18l-43.42-67.18v67.18h-19.18V27.14h19.18l43.42,67.32V27.14h19.18v98.04Z"/>
    <path class="cls-2" d="M729.44,43.13v24.54h32.19v15.57h-32.19v25.95h36.3v15.99h-55.48V27.14h55.48v15.99h-36.3Z"/>
    <path class="cls-2" d="M832.45,125.18l-21.09-38.15h-9.04v38.15h-19.18V27.28h35.89c7.4,0,13.7,1.33,18.9,4,5.21,2.66,9.11,6.27,11.71,10.8,2.6,4.54,3.9,9.61,3.9,15.22,0,6.45-1.83,12.27-5.48,17.46-3.65,5.19-9.09,8.77-16.3,10.73l22.87,39.69h-22.19ZM802.32,72.3h16.03c5.21,0,9.09-1.28,11.64-3.86,2.55-2.57,3.83-6.15,3.83-10.73s-1.28-7.97-3.83-10.45c-2.56-2.48-6.44-3.72-11.64-3.72h-16.03v28.75Z"/>
    <path class="cls-2" d="M922.72,109.61h31.51v15.57h-50.68V27.28h19.18v82.33Z"/>
    <path class="cls-2" d="M985.6,27.28v97.9h-19.18V27.28h19.18Z"/>
    <path class="cls-2" d="M1006.21,50.21c4.25-7.62,10.04-13.56,17.4-17.81,7.35-4.25,15.59-6.38,24.72-6.38,10.68,0,20.05,2.81,28.08,8.42,8.04,5.61,13.65,13.37,16.85,23.28h-22.05c-2.19-4.67-5.27-8.18-9.25-10.52-3.97-2.34-8.56-3.51-13.77-3.51-5.57,0-10.53,1.33-14.86,4-4.34,2.67-7.72,6.43-10.14,11.29-2.42,4.86-3.63,10.57-3.63,17.11s1.21,12.13,3.63,17.04c2.42,4.91,5.8,8.7,10.14,11.36,4.34,2.66,9.29,4,14.86,4,5.21,0,9.79-1.19,13.77-3.58,3.97-2.38,7.05-5.91,9.25-10.59h22.05c-3.2,10.01-8.79,17.79-16.78,23.35-7.99,5.56-17.37,8.35-28.15,8.35-9.13,0-17.37-2.13-24.72-6.38-7.35-4.25-13.15-10.17-17.4-17.74-4.25-7.57-6.37-16.18-6.37-25.81s2.12-18.25,6.37-25.88Z"/>
    <path class="cls-2" d="M1189.01,27.28v97.9h-19.18v-41.65h-40.96v41.65h-19.18V27.28h19.18v40.25h40.96V27.28h19.18Z"/>
    <path class="cls-2" d="M1283.94,27.28l-32.33,63.81v34.08h-19.18v-34.08l-32.47-63.81h21.64l20.55,44.74,20.41-44.74h21.37Z"/>
    <path class="cls-2" d="M1394.21,56.74c-2.19-4.11-5.21-7.24-9.04-9.4-3.84-2.15-8.31-3.23-13.42-3.23-5.66,0-10.68,1.31-15.07,3.93-4.38,2.62-7.81,6.36-10.27,11.22-2.47,4.86-3.7,10.47-3.7,16.83s1.25,12.25,3.77,17.11c2.51,4.86,6,8.6,10.48,11.22,4.47,2.62,9.68,3.93,15.62,3.93,7.3,0,13.29-1.99,17.94-5.96,4.66-3.97,7.72-9.51,9.18-16.62h-32.88v-15.01h51.78v17.11c-1.28,6.83-4.02,13.14-8.22,18.93-4.2,5.8-9.61,10.45-16.23,13.96-6.62,3.51-14.04,5.26-22.26,5.26-9.22,0-17.56-2.13-25-6.38-7.44-4.25-13.29-10.17-17.53-17.74-4.25-7.57-6.37-16.18-6.37-25.81s2.12-18.25,6.37-25.88c4.25-7.62,10.09-13.56,17.53-17.81,7.44-4.25,15.73-6.38,24.86-6.38,10.77,0,20.14,2.69,28.08,8.06,7.94,5.38,13.42,12.93,16.44,22.65h-22.05Z"/>
    <path class="cls-2" d="M1537.08,27.28v97.9h-19.18v-63.67l-25.62,63.67h-14.52l-25.75-63.67v63.67h-19.18V27.28h21.78l30.41,72.79,30.41-72.79h21.64Z"/>
    <path class="cls-2" d="M1623.52,83.24c3.47,4.49,5.21,9.63,5.21,15.43,0,5.24-1.26,9.84-3.77,13.81-2.51,3.98-6.14,7.08-10.89,9.33-4.75,2.24-10.37,3.37-16.85,3.37h-41.23V27.28h39.45c6.48,0,12.08,1.08,16.78,3.23,4.7,2.15,8.26,5.14,10.68,8.98,2.42,3.84,3.63,8.18,3.63,13.04,0,5.7-1.49,10.47-4.45,14.31-2.97,3.84-6.92,6.55-11.85,8.13,5.39,1.03,9.81,3.79,13.29,8.27ZM1575.16,67.68h17.53c4.57,0,8.08-1.05,10.55-3.16s3.7-5.12,3.7-9.05-1.23-6.96-3.7-9.12c-2.47-2.15-5.98-3.23-10.55-3.23h-17.53v24.54ZM1605.37,105.82c2.6-2.24,3.9-5.42,3.9-9.54s-1.37-7.5-4.11-9.89c-2.74-2.38-6.44-3.58-11.1-3.58h-18.9v26.37h19.31c4.66,0,8.29-1.12,10.89-3.37Z"/>
    <path class="cls-2" d="M1723.37,27.28v97.9h-19.18v-41.65h-40.96v41.65h-19.18V27.28h19.18v40.25h40.96V27.28h19.18Z"/>
  </g>
  <g>
    <path class="cls-1" d="M338.47,174.27h-16.68l-3.9,9.68h-4.68l14.33-34.92h5.3l14.28,34.92h-4.74l-3.9-9.68ZM336.85,170.3l-4.96-12.38-1.73-4.87h-.11l-1.62,4.71-5.02,12.54h13.44Z"/>
    <path class="cls-1" d="M357.98,176.86c0,2.7.73,3.54,3.01,3.54,1.51,0,2.45-.16,4.07-.74l-.73,4.07c-1.17.48-2.68.74-4.13.74-4.52,0-6.69-2.27-6.69-7.09v-32.06h4.46v31.53Z"/>
    <path class="cls-1" d="M394.96,157.5v26.45h-3.9l-.28-4.02c-1.95,3.18-5.52,4.55-9.98,4.55-5.52,0-10.26-2.7-10.26-9.68v-17.3h4.46v16.19c0,5.45,2.57,7.09,6.58,7.09,4.74,0,8.92-2.65,8.92-8.89v-14.39h4.46Z"/>
    <path class="cls-1" d="M448.38,167.02v16.93h-4.46v-16.51c0-4.81-2.9-6.77-6.58-6.77-4.35,0-8.25,3.12-8.25,8.78v14.5h-4.46v-16.51c0-4.81-2.9-6.77-6.58-6.77s-8.25,2.59-8.25,9.15v14.13h-4.46v-26.45h3.9l.28,4.13c2.01-3.23,5.47-4.66,8.92-4.66,3.9,0,7.75,1.64,9.59,5.19,1.73-3.6,6.19-5.19,9.7-5.19,5.35,0,10.65,3.07,10.65,10.05Z"/>
    <path class="cls-1" d="M457.36,149.24c0-1.9,1.34-3.18,3.35-3.18s3.35,1.27,3.35,3.18-1.34,3.17-3.35,3.17-3.35-1.27-3.35-3.17ZM462.93,183.95h-4.46v-26.45h4.46v26.45Z"/>
    <path class="cls-1" d="M497.74,167.02v16.93h-4.46v-15.45c0-5.87-3.01-7.83-6.86-7.83-4.07,0-8.65,2.43-8.65,9.21v14.07h-4.46v-26.45h3.9l.28,4.13c1.95-3.33,5.52-4.66,9.37-4.66,5.97,0,10.88,3.23,10.88,10.05Z"/>
    <path class="cls-1" d="M506.71,149.24c0-1.9,1.34-3.18,3.35-3.18s3.35,1.27,3.35,3.18-1.34,3.17-3.35,3.17-3.35-1.27-3.35-3.17ZM512.29,183.95h-4.46v-26.45h4.46v26.45Z"/>
    <path class="cls-1" d="M546.81,157.5v26.45h-3.9l-.28-4.02c-1.95,3.18-5.52,4.55-9.98,4.55-5.52,0-10.26-2.7-10.26-9.68v-17.3h4.46v16.19c0,5.45,2.57,7.09,6.58,7.09,4.74,0,8.92-2.65,8.92-8.89v-14.39h4.46Z"/>
    <path class="cls-1" d="M600.24,167.02v16.93h-4.46v-16.51c0-4.81-2.9-6.77-6.58-6.77-4.35,0-8.25,3.12-8.25,8.78v14.5h-4.46v-16.51c0-4.81-2.9-6.77-6.58-6.77s-8.25,2.59-8.25,9.15v14.13h-4.46v-26.45h3.9l.28,4.13c2.01-3.23,5.47-4.66,8.92-4.66,3.9,0,7.75,1.64,9.59,5.19,1.73-3.6,6.19-5.19,9.7-5.19,5.35,0,10.65,3.07,10.65,10.05Z"/>
    <path class="cls-1" d="M645.01,184.48c-10.49,0-17.07-6.93-17.07-17.99s6.69-17.99,16.96-17.99c7.14,0,11.94,2.86,14.28,8.15l-4.41,1.96c-1.62-4.02-4.63-6.14-9.54-6.14-7.53,0-12.61,5.19-12.61,14.02s4.74,14.02,12.38,14.02c4.91,0,8.76-2.38,10.37-7.09l4.46,1.59c-2.34,5.98-7.92,9.47-14.84,9.47Z"/>
    <path class="cls-1" d="M692.7,180.62l-.28,3.33c-.78.27-1.95.53-3.35,.53-2.73,0-4.52-.95-5.02-3.92-1.78,2.49-5.41,3.92-8.98,3.92-5.24,0-9.48-2.33-9.48-7.09,0-3.97,3.68-7.09,10.88-8.25l7.42-1.16v-1.48c0-3.49-2.34-5.82-6.53-5.82-3.68,0-6.47,1.69-7.98,5.03l-3.29-2.28c1.45-3.92,5.86-6.46,11.27-6.46,6.36,0,10.99,2.86,10.99,9v13.02c0,1.27,.56,1.9,2.12,1.9,.73,0,1.56-.11,2.23-.27ZM683.88,175.06v-3.65l-6.25,1.11c-4.91,.85-7.42,2.38-7.42,4.87,0,2.22,1.9,3.39,5.08,3.39,4.46,0,8.59-2.22,8.59-5.71Z"/>
    <path class="cls-1" d="M696.65,178.5l3.63-2.38c1.34,3.23,4.8,4.66,8.81,4.66,4.57,0,6.75-1.75,6.75-3.92,0-1.96-1.73-3.12-7.31-4.07-7.92-1.38-10.82-3.44-10.82-7.88s4.18-7.94,10.99-7.94c5.97,0,9.48,2.01,11.04,6.35l-3.79,2.12c-1.23-3.49-3.74-4.76-7.25-4.76-3.74,0-6.53,1.9-6.53,3.86,0,2.28,1.84,3.44,7.53,4.34,7.81,1.22,10.6,3.44,10.6,7.78,0,4.6-4.52,7.83-11.66,7.83-5.13,0-9.87-1.9-11.99-5.98Z"/>
    <path class="cls-1" d="M745.62,182.1c-1.73,1.48-4.13,2.38-7.19,2.38-4.13,0-7.7-1.96-7.75-7.09v-16.24h-5.58v-3.65h5.58v-6.35l4.46-1.16v7.51h10.32v3.65h-10.32v15.5c0,2.59,1.73,3.86,4.18,3.86,2.01,0,3.46-.74,4.74-1.96l1.56,3.54Z"/>
    <path class="cls-1" d="M750.8,149.24c0-1.9,1.34-3.18,3.35-3.18s3.35,1.27,3.35,3.18-1.34,3.17-3.35,3.17-3.35-1.27-3.35-3.17ZM756.38,183.95h-4.46v-26.45h4.46v26.45Z"/>
    <path class="cls-1" d="M791.18,167.02v16.93h-4.46v-15.45c0-5.87-3.01-7.83-6.86-7.83-4.07,0-8.65,2.43-8.65,9.21v14.07h-4.46v-26.45h3.9l.28,4.13c1.95-3.33,5.52-4.66,9.37-4.66,5.97,0,10.88,3.23,10.88,10.05Z"/>
    <path class="cls-1" d="M825.25,186.86c0,5.24-6.25,8.47-13.78,8.47-8.81,0-12.83-3.02-12.83-6.98,0-2.43,1.84-4.34,4.91-5.13-2.12-.95-3.79-2.54-3.79-4.87,0-2.75,1.73-4.39,4.18-5.19-2.68-1.59-4.07-4.18-4.07-7.25,0-5.24,4.74-8.94,11.43-8.94,2.12,0,4.02,.37,5.69,1.06,1.06-3.65,3.68-5.4,7.86-5.4l1,3.7c-3.74,0-5.86,1.01-6.64,2.91,2.23,1.59,3.51,3.92,3.51,6.67,0,5.24-4.74,8.94-11.43,8.94-1.62,0-3.07-.16-4.3-.48-2.23,.48-3.12,1.54-3.12,3.33s1.51,2.86,3.68,2.86h9.26c5.3,0,8.42,2.49,8.42,6.3ZM821.12,187.34c0-1.9-1.34-3.12-5.52-3.12h-7.47c-3.51,0-5.35,1.27-5.35,3.28,0,2.59,3.07,4.28,9.2,4.28s9.15-2.12,9.15-4.44ZM804.51,165.91c0,3.28,2.96,5.5,6.8,5.5s6.8-2.22,6.8-5.5-2.96-5.5-6.8-5.5-6.8,2.22-6.8,5.5Z"/>
    <path class="cls-1" d="M854.42,192.84h-3.85v-47.51h3.85v47.51Z"/>
    <path class="cls-1" d="M909.68,159.67c0,6.56-4.96,10.63-12.38,10.63h-8.53v13.65h-4.46v-34.92h12.99c7.42,0,12.38,4.07,12.38,10.63ZM905,159.67c0-4.34-2.57-6.67-8.37-6.67h-7.86v13.33h7.86c5.8,0,8.37-2.33,8.37-6.67Z"/>
    <path class="cls-1" d="M933.72,157.5l-.89,4.13c-.84-.42-2.06-.69-3.51-.69-3.35,0-7.36,2.8-7.36,8.73v14.28h-4.46v-26.45h3.63l.61,4.34c1.56-3.23,4.57-4.87,8.92-4.87,.95,0,2.23,.11,3.07,.53Z"/>
    <path class="cls-1" d="M964.61,170.72c0,8.57-5.08,13.76-13.5,13.76s-13.5-5.18-13.5-13.76,5.08-13.76,13.5-13.76,13.5,5.19,13.5,13.76ZM942.08,170.72c0,6.3,3.4,10.11,9.03,10.11s9.04-3.81,9.04-10.11-3.4-10.11-9.04-10.11-9.03,3.81-9.03,10.11Z"/>
    <path class="cls-1" d="M989.82,182.1c-1.73,1.48-4.13,2.38-7.19,2.38-4.13,0-7.7-1.96-7.75-7.09v-16.24h-5.58v-3.65h5.58v-6.35l4.46-1.16v7.51h10.32v3.65h-10.32v15.5c0,2.59,1.73,3.86,4.18,3.86,2.01,0,3.46-.74,4.74-1.96l1.56,3.54Z"/>
    <path class="cls-1" d="M1021.38,170.72c0,8.57-5.08,13.76-13.5,13.76s-13.5-5.18-13.5-13.76,5.08-13.76,13.5-13.76,13.5,5.19,13.5,13.76ZM998.85,170.72c0,6.3,3.4,10.11,9.03,10.11s9.04-3.81,9.04-10.11-3.4-10.11-9.04-10.11-9.03,3.81-9.03,10.11Z"/>
    <path class="cls-1" d="M1046.59,182.1c-1.73,1.48-4.13,2.38-7.19,2.38-4.13,0-7.7-1.96-7.75-7.09v-16.24h-5.58v-3.65h5.58v-6.35l4.46-1.16v7.51h10.32v3.65h-10.32v15.5c0,2.59,1.73,3.86,4.18,3.86,2.01,0,3.46-.74,4.74-1.96l1.56,3.54Z"/>
    <path class="cls-1" d="M1063.49,188.4c-2.17,5.19-4.68,6.93-8.81,6.93-2.79,0-4.57-.64-6.14-2.22l1.56-3.6c1.28,1.69,2.96,2.12,4.52,2.12,1.95,0,3.68-.79,5.08-4.29l1.45-3.44-11.66-26.4h5.07l6.97,17.25,1.73,4.71,2.01-5.24,6.53-16.72h4.8l-13.11,30.9Z"/>
    <path class="cls-1" d="M1109.16,170.72c0,8.62-4.96,13.76-12.72,13.76-4.18,0-7.53-1.9-9.26-4.66v15.24h-4.46v-37.56h3.9l.28,4.6c1.62-3.02,5.13-5.13,9.54-5.13,7.75,0,12.72,5.13,12.72,13.76ZM1104.7,170.72c0-6.14-3.29-10.05-8.76-10.05s-8.76,3.76-8.76,9.74v.64c0,5.98,3.46,9.74,8.76,9.74s8.76-3.92,8.76-10.05Z"/>
    <path class="cls-1" d="M1116.74,149.24c0-1.9,1.34-3.18,3.35-3.18s3.35,1.27,3.35,3.18-1.34,3.17-3.35,3.17-3.35-1.27-3.35-3.17ZM1122.32,183.95h-4.46v-26.45h4.46v26.45Z"/>
    <path class="cls-1" d="M1157.12,167.02v16.93h-4.46v-15.45c0-5.87-3.01-7.83-6.86-7.83-4.07,0-8.65,2.43-8.65,9.21v14.07h-4.46v-26.45h3.9l.28,4.13c1.95-3.33,5.52-4.66,9.37-4.66,5.97,0,10.88,3.23,10.88,10.05Z"/>
    <path class="cls-1" d="M1191.19,186.86c0,5.24-6.25,8.47-13.78,8.47-8.81,0-12.83-3.02-12.83-6.98,0-2.43,1.84-4.34,4.91-5.13-2.12-.95-3.79-2.54-3.79-4.87,0-2.75,1.73-4.39,4.18-5.19-2.68-1.59-4.07-4.18-4.07-7.25,0-5.24,4.74-8.94,11.43-8.94,2.12,0,4.02,.37,5.69,1.06,1.06-3.65,3.68-5.4,7.86-5.4l1,3.7c-3.74,0-5.86,1.01-6.64,2.91,2.23,1.59,3.51,3.92,3.51,6.67,0,5.24-4.74,8.94-11.43,8.94-1.62,0-3.07-.16-4.3-.48-2.23,.48-3.12,1.54-3.12,3.33s1.51,2.86,3.68,2.86h9.26c5.3,0,8.42,2.49,8.42,6.3ZM1187.07,187.34c0-1.9-1.34-3.12-5.52-3.12h-7.47c-3.51,0-5.35,1.27-5.35,3.28,0,2.59,3.07,4.28,9.2,4.28s9.15-2.12,9.15-4.44ZM1170.45,165.91c0,3.28,2.96,5.5,6.8,5.5s6.8-2.22,6.8-5.5-2.96-5.5-6.8-5.5-6.8,2.22-6.8,5.5Z"/>
    <path class="cls-1" d="M1220.36,192.84h-3.85v-47.51h3.85v47.51Z"/>
    <path class="cls-1" d="M1276.29,155.91l-3.85,2.96c-2.23-4.6-4.91-6.4-10.32-6.4-5.86,0-9.09,2.59-9.09,5.93s2.45,4.92,10.21,6.19c9.87,1.59,13.39,4.55,13.39,9.95,0,5.98-5.63,9.95-14.22,9.95-7.81,0-12.94-3.23-15.51-7.57l3.85-2.96c1.95,4.02,5.74,6.56,11.77,6.56,5.69,0,9.48-2.01,9.48-5.77,0-3.02-2.4-4.76-10.15-6.03-9.93-1.64-13.5-4.5-13.5-9.84,0-5.61,5.19-10.37,13.72-10.37,6.75,0,11.38,2.54,14.22,7.41Z"/>
    <path class="cls-1" d="M1308.86,172.31h-21.03c.56,5.34,3.96,8.47,9.09,8.47,4.07,0,6.86-1.38,7.86-3.92l3.74,1.85c-2.12,3.6-5.58,5.77-11.6,5.77-8.42,0-13.5-5.18-13.5-13.76s4.74-13.76,13.16-13.76,12.49,5.56,12.49,12.38c0,1.22-.11,2.22-.22,2.96ZM1287.89,168.55h16.9c-.61-4.87-3.46-7.88-8.2-7.88s-8.03,2.91-8.7,7.88Z"/>
    <path class="cls-1" d="M1333.79,157.5l-.89,4.13c-.84-.42-2.06-.69-3.51-.69-3.35,0-7.36,2.8-7.36,8.73v14.28h-4.46v-26.45h3.63l.61,4.34c1.56-3.23,4.57-4.87,8.92-4.87.95,0,2.23,.11,3.07,.53Z"/>
    <path class="cls-1" d="M1339.2,149.24c0-1.9,1.34-3.18,3.35-3.18s3.35,1.27,3.35,3.18-1.34,3.17-3.35,3.17-3.35-1.27-3.35-3.17ZM1344.77,183.95h-4.46v-26.45h4.46v26.45Z"/>
    <path class="cls-1" d="M1378.85,172.31h-21.03c.56,5.34,3.96,8.47,9.09,8.47,4.07,0,6.86-1.38,7.86-3.92l3.74,1.85c-2.12,3.6-5.58,5.77-11.6,5.77-8.42,0-13.5-5.18-13.5-13.76s4.74-13.76,13.16-13.76,12.49,5.56,12.49,12.38c0,1.22-.11,2.22-.22,2.96ZM1357.88,168.55h16.9c-.61-4.87-3.46-7.88-8.2-7.88s-8.03,2.91-8.7,7.88Z"/>
    <path class="cls-1" d="M1385.03,178.5l3.63-2.38c1.34,3.23,4.8,4.66,8.81,4.66,4.57,0,6.75-1.75,6.75-3.92,0-1.96-1.73-3.12-7.31-4.07-7.92-1.38-10.82-3.44-10.82-7.88s4.18-7.94,10.99-7.94c5.97,0,9.48,2.01,11.04,6.35l-3.79,2.12c-1.23-3.49-3.74-4.76-7.25-4.76-3.74,0-6.53,1.9-6.53,3.86,0,2.28,1.84,3.44,7.53,4.34,7.81,1.22,10.6,3.44,10.6,7.78,0,4.6-4.52,7.83-11.66,7.83-5.13,0-9.87-1.9-11.99-5.98Z"/>
    <path class="cls-1" d="M1462.16,159.67c0,6.56-4.96,10.63-12.38,10.63h-8.53v13.65h-4.46v-34.92h12.99c7.42,0,12.38,4.07,12.38,10.63ZM1457.48,159.67c0-4.34-2.57-6.67-8.37-6.67h-7.86v13.33h7.86c5.8,0,8.37-2.33,8.37-6.67Z"/>
    <path class="cls-1" d="M1486.2,157.5l-.89,4.13c-.84-.42-2.06-.69-3.51-.69-3.35,0-7.36,2.8-7.36,8.73v14.28h-4.46v-26.45h3.63l.61,4.34c1.56-3.23,4.57-4.87,8.92-4.87,.95,0,2.23,.11,3.07,.53Z"/>
    <path class="cls-1" d="M1517.09,170.72c0,8.57-5.08,13.76-13.5,13.76s-13.5-5.18-13.5-13.76,5.08-13.76,13.5-13.76,13.5,5.19,13.5,13.76ZM1494.56,170.72c0,6.3,3.4,10.11,9.03,10.11s9.04-3.81,9.04-10.11-3.4-10.11-9.04-10.11-9.03,3.81-9.03,10.11Z"/>
    <path class="cls-1" d="M1550.5,145.33v38.62h-3.9l-.28-4.6c-1.62,3.02-5.13,5.13-9.54,5.13-7.75,0-12.72-5.13-12.72-13.76s4.96-13.76,12.72-13.76c4.18,0,7.53,1.9,9.26,4.66v-16.3h4.46ZM1546.04,171.04v-.64c0-5.98-3.46-9.74-8.76-9.74s-8.76,3.92-8.76,10.05,3.29,10.05,8.76,10.05,8.76-3.76,8.76-9.74Z"/>
    <path class="cls-1" d="M1585.02,157.5v26.45h-3.9l-.28-4.02c-1.95,3.18-5.52,4.55-9.98,4.55-5.52,0-10.26-2.7-10.26-9.68v-17.3h4.46v16.19c0,5.45,2.57,7.09,6.58,7.09,4.74,0,8.92-2.65,8.92-8.89v-14.39h4.46Z"/>
    <path class="cls-1" d="M1618.7,164l-4.24,1.9c-1.17-3.39-3.57-5.24-7.42-5.24-5.58,0-8.92,3.76-8.92,10.05s3.35,10.05,8.92,10.05c4.35,0,6.97-1.96,7.81-5.45l4.13,1.38c-1.9,4.87-5.91,7.78-11.82,7.78-8.42,0-13.5-5.18-13.5-13.76s5.08-13.76,13.5-13.76c5.75,0,9.48,2.7,11.55,7.04Z"/>
    <path class="cls-1" d="M1643.91,182.1c-1.73,1.48-4.13,2.38-7.19,2.38-4.13,0-7.7-1.96-7.75-7.09v-16.24h-5.58v-3.65h5.58v-6.35l4.46-1.16v7.51h10.32v3.65h-10.32v15.5c0,2.59,1.73,3.86,4.18,3.86,2.01,0,3.46-.74,4.74-1.96l1.56,3.54Z"/>
    <path class="cls-1" d="M1649.09,149.24c0-1.9,1.34-3.18,3.35-3.18s3.35,1.27,3.35,3.18-1.34,3.17-3.35,3.17-3.35-1.27-3.35-3.17ZM1654.67,183.95h-4.46v-26.45h4.46v26.45Z"/>
    <path class="cls-1" d="M1690.31,170.72c0,8.57-5.08,13.76-13.5,13.76s-13.5-5.18-13.5-13.76,5.08-13.76,13.5-13.76,13.5,5.19,13.5,13.76ZM1667.77,170.72c0,6.3,3.4,10.11,9.03,10.11s9.04-3.81,9.04-10.11-3.4-10.11-9.04-10.11-9.03,3.81-9.03,10.11Z"/>
    <path class="cls-1" d="M1723.37,167.02v16.93h-4.46v-15.45c0-5.87-3.01-7.83-6.86-7.83-4.07,0-8.65,2.43-8.65,9.21v14.07h-4.46v-26.45h3.9l.28,4.13c1.95-3.33,5.52-4.66,9.37-4.66,5.97,0,10.88,3.23,10.88,10.05Z"/>
  </g>
</svg>
