<?xml version="1.0" encoding="UTF-8"?>
<svg id="dark" xmlns="http://www.w3.org/2000/svg" viewBox="0 0 1474 235">
  <defs>
    <style>
      .cls-1 {
        fill: #262f3b;
      }

      .cls-2 {
        fill: #0226b6;
      }
    </style>
  </defs>
  <path class="cls-2" d="M156.37,113.49l21.93-66.98h16.63l-19.38,52.63h58.42l-34.8-61.87c-3-5.34-8.65-8.64-14.77-8.64h-82.16c-6.12,0-11.77,3.3-14.77,8.64l-41.46,73.7c-2.81,4.99-2.9,11.05-.27,16.11h86.8l-21.93,66.98h-16.63l19.38-52.63h-59.55l33.67,59.86c3,5.34,8.65,8.64,14.77,8.64h82.16c6.12,0,11.77-3.3,14.77-8.64l41.46-73.7c2.44-4.35,2.83-9.5,1.16-14.1h-85.42ZM120.21,113.49l1.99-34.85-9.88,34.85h-22.13l.89-66.98h14.45l-1.7,53.74h1.7l14.67-53.74h14.38l-3.02,53.74h1.7l16.89-53.74h14.47l-22.28,66.98h-22.13ZM197.83,194.07h-14.45l1.7-53.74h-1.7l-14.67,53.74h-14.38l3.02-53.74h-1.7l-16.89,53.74h-14.47l22.28-66.98h22.13l-1.99,34.85,9.88-34.85h22.13l-.89,66.98Z"/>
  <g>
    <path class="cls-1" d="M388.31,44.99l-21.65,77.48h-18.31l-14.54-55.17-15.21,55.17-18.2.11-20.87-77.59h16.65l13.65,60.16,15.76-60.16h17.32l14.87,59.83,13.76-59.83h16.76Z"/>
    <path class="cls-1" d="M413.95,57.53v19.43h26.08v12.32h-26.08v20.54h29.41v12.65h-44.95V44.88h44.95v12.65h-29.41Z"/>
    <path class="cls-1" d="M497.42,122.47l-17.09-30.19h-7.33v30.19h-15.54V44.99h29.08c5.99,0,11.1,1.05,15.32,3.16,4.22,2.11,7.38,4.96,9.49,8.55,2.11,3.59,3.16,7.6,3.16,12.04,0,5.11-1.48,9.71-4.44,13.82-2.96,4.11-7.36,6.94-13.21,8.49l18.54,31.41h-17.98ZM473,80.62h12.99c4.22,0,7.36-1.02,9.44-3.05,2.07-2.03,3.11-4.87,3.11-8.49s-1.04-6.31-3.11-8.27c-2.07-1.96-5.22-2.94-9.44-2.94h-12.99v22.75Z"/>
    <path class="cls-1" d="M594.87,122.47h-15.54l-35.19-53.17v53.17h-15.54V44.88h15.54l35.19,53.28v-53.28h15.54v77.59Z"/>
    <path class="cls-1" d="M625.73,57.53v19.43h26.08v12.32h-26.08v20.54h29.42v12.65h-44.96V44.88h44.96v12.65h-29.42Z"/>
    <path class="cls-1" d="M709.2,122.47l-17.09-30.19h-7.33v30.19h-15.54V44.99h29.08c5.99,0,11.1,1.05,15.32,3.16,4.22,2.11,7.38,4.96,9.49,8.55,2.11,3.59,3.16,7.6,3.16,12.04,0,5.11-1.48,9.71-4.44,13.82-2.96,4.11-7.36,6.94-13.21,8.49l18.54,31.41h-17.98ZM684.78,80.62h12.99c4.22,0,7.36-1.02,9.44-3.05,2.07-2.03,3.11-4.87,3.11-8.49s-1.04-6.31-3.11-8.27c-2.07-1.96-5.22-2.94-9.44-2.94h-12.99v22.75Z"/>
    <path class="cls-1" d="M782.35,110.15h25.53v12.32h-41.07V44.99h15.54v65.16Z"/>
    <path class="cls-1" d="M833.3,44.99v77.48h-15.54V44.99h15.54Z"/>
    <path class="cls-1" d="M850,63.14c3.44-6.03,8.14-10.73,14.1-14.1,5.96-3.37,12.63-5.05,20.04-5.05,8.66,0,16.24,2.22,22.75,6.66s11.06,10.58,13.65,18.43h-17.87c-1.78-3.7-4.27-6.47-7.49-8.32-3.22-1.85-6.94-2.78-11.16-2.78-4.51,0-8.53,1.05-12.04,3.16-3.52,2.11-6.25,5.09-8.21,8.94-1.96,3.85-2.94,8.36-2.94,13.54s.98,9.6,2.94,13.49c1.96,3.88,4.7,6.88,8.21,8.99,3.51,2.11,7.53,3.16,12.04,3.16,4.22,0,7.94-.94,11.16-2.83,3.22-1.89,5.72-4.68,7.49-8.38h17.87c-2.59,7.92-7.12,14.08-13.6,18.48-6.48,4.4-14.08,6.6-22.81,6.6-7.4,0-14.08-1.68-20.04-5.05-5.96-3.37-10.66-8.05-14.1-14.04-3.44-5.99-5.16-12.8-5.16-20.42s1.72-14.45,5.16-20.48Z"/>
    <path class="cls-1" d="M998.13,44.99v77.48h-15.54v-32.97h-33.19v32.97h-15.54V44.99h15.54v31.86h33.19v-31.86h15.54Z"/>
    <path class="cls-1" d="M1075.06,44.99l-26.2,50.5v26.97h-15.54v-26.97l-26.31-50.5h17.54l16.65,35.41,16.54-35.41h17.32Z"/>
    <path class="cls-1" d="M1164.41,68.3c-1.78-3.26-4.22-5.73-7.33-7.44-3.11-1.7-6.74-2.55-10.88-2.55-4.59,0-8.66,1.04-12.21,3.11-3.55,2.07-6.33,5.03-8.33,8.88-2,3.85-3,8.29-3,13.32s1.02,9.7,3.05,13.54c2.03,3.85,4.86,6.81,8.49,8.88,3.62,2.07,7.84,3.11,12.65,3.11,5.92,0,10.77-1.57,14.54-4.72,3.77-3.14,6.25-7.53,7.44-13.15h-26.64v-11.88h41.96v13.54c-1.04,5.4-3.26,10.4-6.66,14.98-3.4,4.59-7.79,8.27-13.15,11.04-5.37,2.77-11.38,4.16-18.04,4.16-7.47,0-14.23-1.68-20.26-5.05-6.03-3.37-10.77-8.05-14.21-14.04-3.44-5.99-5.16-12.8-5.16-20.42s1.72-14.45,5.16-20.48c3.44-6.03,8.18-10.73,14.21-14.1,6.03-3.37,12.75-5.05,20.15-5.05,8.73,0,16.32,2.13,22.75,6.38,6.44,4.26,10.88,10.23,13.32,17.93h-17.87Z"/>
    <path class="cls-1" d="M1280.18,44.99v77.48h-15.54v-50.39l-20.76,50.39h-11.77l-20.87-50.39v50.39h-15.54V44.99h17.65l24.64,57.61,24.64-57.61h17.54Z"/>
    <path class="cls-1" d="M1350.22,89.28c2.81,3.55,4.22,7.62,4.22,12.21,0,4.15-1.02,7.79-3.05,10.93-2.04,3.15-4.98,5.61-8.83,7.38-3.85,1.78-8.4,2.66-13.65,2.66h-33.41V44.99h31.97c5.25,0,9.79.85,13.6,2.55,3.81,1.7,6.7,4.07,8.66,7.1,1.96,3.04,2.94,6.48,2.94,10.32,0,4.51-1.2,8.29-3.61,11.32-2.41,3.04-5.61,5.18-9.6,6.44,4.37.81,7.95,3,10.77,6.55ZM1311.04,76.96h14.21c3.7,0,6.55-.83,8.55-2.5s3-4.05,3-7.16-1-5.51-3-7.21c-2-1.7-4.85-2.55-8.55-2.55h-14.21v19.43ZM1335.51,107.15c2.11-1.78,3.16-4.29,3.16-7.55s-1.11-5.94-3.33-7.83c-2.22-1.89-5.22-2.83-8.99-2.83h-15.32v20.87h15.65c3.77,0,6.72-.89,8.83-2.66Z"/>
    <path class="cls-1" d="M1431.14,44.99v77.48h-15.54v-32.97h-33.19v32.97h-15.54V44.99h15.54v31.86h33.19v-31.86h15.54Z"/>
  </g>
  <g>
    <path class="cls-1" d="M299.12,167.49h-13.76l-3.22,8.42h-3.86l11.82-30.36h4.37l11.78,30.36h-3.91l-3.22-8.42ZM297.79,164.04l-4.09-10.77-1.43-4.23h-.09l-1.33,4.09-4.14,10.9h11.09Z"/>
    <path class="cls-1" d="M315.22,169.74c0,2.35.6,3.08,2.48,3.08,1.24,0,2.02-.14,3.36-.64l-.6,3.54c-.97.41-2.21.64-3.4.64-3.73,0-5.52-1.98-5.52-6.16v-27.88h3.68v27.42Z"/>
    <path class="cls-1" d="M345.72,152.91v23h-3.22l-.23-3.5c-1.61,2.76-4.55,3.96-8.23,3.96-4.55,0-8.47-2.35-8.47-8.42v-15.04h3.68v14.08c0,4.74,2.12,6.17,5.43,6.17,3.91,0,7.36-2.3,7.36-7.73v-12.51h3.68Z"/>
    <path class="cls-1" d="M389.79,161.19v14.72h-3.68v-14.35c0-4.19-2.39-5.89-5.43-5.89-3.59,0-6.81,2.71-6.81,7.64v12.61h-3.68v-14.35c0-4.19-2.39-5.89-5.43-5.89s-6.81,2.25-6.81,7.96v12.28h-3.68v-23h3.22l.23,3.59c1.66-2.81,4.51-4.05,7.36-4.05,3.22,0,6.39,1.43,7.91,4.51,1.43-3.13,5.11-4.51,8-4.51,4.42,0,8.79,2.67,8.79,8.74Z"/>
    <path class="cls-1" d="M397.19,145.73c0-1.66,1.1-2.76,2.76-2.76s2.76,1.1,2.76,2.76-1.1,2.76-2.76,2.76-2.76-1.1-2.76-2.76ZM401.79,175.91h-3.68v-23h3.68v23Z"/>
    <path class="cls-1" d="M430.5,161.19v14.72h-3.68v-13.43c0-5.11-2.48-6.81-5.66-6.81-3.36,0-7.13,2.12-7.13,8v12.24h-3.68v-23h3.22l.23,3.59c1.61-2.9,4.55-4.05,7.73-4.05,4.92,0,8.97,2.81,8.97,8.74Z"/>
    <path class="cls-1" d="M437.9,145.73c0-1.66,1.1-2.76,2.76-2.76s2.76,1.1,2.76,2.76-1.1,2.76-2.76,2.76-2.76-1.1-2.76-2.76ZM442.5,175.91h-3.68v-23h3.68v23Z"/>
    <path class="cls-1" d="M470.97,152.91v23h-3.22l-.23-3.5c-1.61,2.76-4.55,3.96-8.23,3.96-4.55,0-8.47-2.35-8.47-8.42v-15.04h3.68v14.08c0,4.74,2.12,6.17,5.43,6.17,3.91,0,7.36-2.3,7.36-7.73v-12.51h3.68Z"/>
    <path class="cls-1" d="M515.04,161.19v14.72h-3.68v-14.35c0-4.19-2.39-5.89-5.43-5.89-3.59,0-6.81,2.71-6.81,7.64v12.61h-3.68v-14.35c0-4.19-2.39-5.89-5.43-5.89s-6.81,2.25-6.81,7.96v12.28h-3.68v-23h3.22l.23,3.59c1.66-2.81,4.51-4.05,7.36-4.05,3.22,0,6.39,1.43,7.91,4.51,1.43-3.13,5.11-4.51,8-4.51,4.42,0,8.79,2.67,8.79,8.74Z"/>
    <path class="cls-1" d="M551.98,176.37c-8.65,0-14.08-6.03-14.08-15.64s5.52-15.64,13.99-15.64c5.89,0,9.85,2.48,11.78,7.08l-3.63,1.7c-1.33-3.5-3.82-5.34-7.87-5.34-6.21,0-10.4,4.51-10.4,12.19s3.91,12.19,10.21,12.19c4.05,0,7.22-2.07,8.56-6.17l3.68,1.38c-1.93,5.2-6.53,8.23-12.24,8.23Z"/>
    <path class="cls-1" d="M591.31,173.01l-.23,2.9c-.64.23-1.61.46-2.76.46-2.25,0-3.73-.83-4.14-3.4-1.47,2.16-4.46,3.4-7.41,3.4-4.32,0-7.82-2.02-7.82-6.16,0-3.45,3.04-6.17,8.97-7.18l6.12-1.01v-1.29c0-3.04-1.93-5.06-5.38-5.06-3.04,0-5.34,1.47-6.58,4.37l-2.71-1.98c1.2-3.4,4.83-5.61,9.29-5.61,5.24,0,9.06,2.48,9.06,7.82v11.32c0,1.1.46,1.66,1.75,1.66.6,0,1.29-.09,1.84-.23ZM584.04,168.18v-3.17l-5.15.97c-4.05.74-6.12,2.07-6.12,4.23,0,1.93,1.56,2.94,4.19,2.94,3.68,0,7.08-1.93,7.08-4.97Z"/>
    <path class="cls-1" d="M594.57,171.17l2.99-2.07c1.1,2.81,3.96,4.05,7.27,4.05,3.77,0,5.57-1.52,5.57-3.4,0-1.7-1.43-2.71-6.03-3.54-6.53-1.2-8.93-2.99-8.93-6.85s3.45-6.9,9.06-6.9c4.92,0,7.82,1.75,9.11,5.52l-3.13,1.84c-1.01-3.04-3.08-4.14-5.98-4.14-3.08,0-5.38,1.66-5.38,3.36,0,1.98,1.52,2.99,6.21,3.77,6.44,1.06,8.74,2.99,8.74,6.76,0,4-3.73,6.81-9.62,6.81-4.23,0-8.14-1.66-9.89-5.2Z"/>
    <path class="cls-1" d="M634.96,174.3c-1.43,1.29-3.4,2.07-5.93,2.07-3.41,0-6.35-1.7-6.4-6.16v-14.12h-4.6v-3.17h4.6v-5.52l3.68-1.01v6.53h8.51v3.17h-8.51v13.48c0,2.25,1.43,3.36,3.45,3.36,1.66,0,2.85-.64,3.91-1.7l1.29,3.08Z"/>
    <path class="cls-1" d="M639.24,145.73c0-1.66,1.1-2.76,2.76-2.76s2.76,1.1,2.76,2.76-1.1,2.76-2.76,2.76-2.76-1.1-2.76-2.76ZM643.84,175.91h-3.68v-23h3.68v23Z"/>
    <path class="cls-1" d="M672.54,161.19v14.72h-3.68v-13.43c0-5.11-2.48-6.81-5.66-6.81-3.36,0-7.13,2.12-7.13,8v12.24h-3.68v-23h3.22l.23,3.59c1.61-2.9,4.55-4.05,7.73-4.05,4.92,0,8.97,2.81,8.97,8.74Z"/>
    <path class="cls-1" d="M700.65,178.44c0,4.55-5.15,7.36-11.36,7.36-7.27,0-10.58-2.62-10.58-6.07,0-2.12,1.52-3.77,4.05-4.46-1.75-.83-3.13-2.21-3.13-4.23,0-2.39,1.43-3.82,3.45-4.51-2.21-1.38-3.36-3.63-3.36-6.3,0-4.55,3.91-7.78,9.43-7.78,1.75,0,3.31.32,4.69.92.87-3.17,3.04-4.69,6.49-4.69l.83,3.22c-3.08,0-4.83.87-5.47,2.53,1.84,1.38,2.9,3.4,2.9,5.8,0,4.55-3.91,7.77-9.43,7.77-1.33,0-2.53-.14-3.54-.41-1.84.41-2.58,1.33-2.58,2.9s1.24,2.48,3.04,2.48h7.64c4.37,0,6.95,2.16,6.95,5.47ZM697.24,178.85c0-1.66-1.1-2.71-4.55-2.71h-6.16c-2.9,0-4.42,1.1-4.42,2.85,0,2.25,2.53,3.73,7.59,3.73s7.54-1.84,7.54-3.86ZM683.53,160.22c0,2.85,2.44,4.78,5.61,4.78s5.61-1.93,5.61-4.78-2.44-4.78-5.61-4.78-5.61,1.93-5.61,4.78Z"/>
    <path class="cls-1" d="M724.7,183.64h-3.17v-41.31h3.17v41.31Z"/>
    <path class="cls-1" d="M770.29,154.79c0,5.71-4.09,9.25-10.21,9.25h-7.04v11.87h-3.68v-30.36h10.72c6.12,0,10.21,3.54,10.21,9.25ZM766.43,154.79c0-3.77-2.12-5.8-6.9-5.8h-6.49v11.59h6.49c4.78,0,6.9-2.02,6.9-5.8Z"/>
    <path class="cls-1" d="M790.12,152.91l-.74,3.59c-.69-.37-1.7-.6-2.9-.6-2.76,0-6.07,2.44-6.07,7.59v12.42h-3.68v-23h2.99l.51,3.77c1.29-2.81,3.77-4.23,7.36-4.23.78,0,1.84.09,2.53.46Z"/>
    <path class="cls-1" d="M815.6,164.41c0,7.45-4.19,11.96-11.13,11.96s-11.13-4.51-11.13-11.96,4.19-11.96,11.13-11.96,11.13,4.51,11.13,11.96ZM797.01,164.41c0,5.47,2.81,8.79,7.45,8.79s7.45-3.31,7.45-8.79-2.81-8.79-7.45-8.79-7.45,3.31-7.45,8.79Z"/>
    <path class="cls-1" d="M836.39,174.3c-1.43,1.29-3.4,2.07-5.93,2.07-3.41,0-6.35-1.7-6.4-6.16v-14.12h-4.6v-3.17h4.6v-5.52l3.68-1.01v6.53h8.51v3.17h-8.51v13.48c0,2.25,1.43,3.36,3.45,3.36,1.66,0,2.85-.64,3.91-1.7l1.29,3.08Z"/>
    <path class="cls-1" d="M862.43,164.41c0,7.45-4.19,11.96-11.13,11.96s-11.13-4.51-11.13-11.96,4.19-11.96,11.13-11.96,11.13,4.51,11.13,11.96ZM843.84,164.41c0,5.47,2.81,8.79,7.45,8.79s7.45-3.31,7.45-8.79-2.81-8.79-7.45-8.79-7.45,3.31-7.45,8.79Z"/>
    <path class="cls-1" d="M883.22,174.3c-1.43,1.29-3.4,2.07-5.93,2.07-3.41,0-6.35-1.7-6.4-6.16v-14.12h-4.6v-3.17h4.6v-5.52l3.68-1.01v6.53h8.51v3.17h-8.51v13.48c0,2.25,1.43,3.36,3.45,3.36,1.66,0,2.85-.64,3.91-1.7l1.29,3.08Z"/>
    <path class="cls-1" d="M897.16,179.77c-1.79,4.51-3.86,6.03-7.27,6.03-2.3,0-3.77-.55-5.06-1.93l1.29-3.13c1.06,1.47,2.44,1.84,3.73,1.84,1.61,0,3.04-.69,4.19-3.73l1.2-2.99-9.61-22.96h4.19l5.75,15,1.43,4.09,1.66-4.55,5.38-14.54h3.96l-10.81,26.87Z"/>
    <path class="cls-1" d="M934.83,164.41c0,7.5-4.09,11.96-10.49,11.96-3.45,0-6.21-1.66-7.64-4.05v13.25h-3.68v-32.66h3.22l.23,4c1.33-2.62,4.23-4.46,7.87-4.46,6.39,0,10.49,4.46,10.49,11.96ZM931.15,164.41c0-5.34-2.71-8.74-7.22-8.74s-7.22,3.27-7.22,8.46v.55c0,5.2,2.85,8.46,7.22,8.46s7.22-3.4,7.22-8.74Z"/>
    <path class="cls-1" d="M941.08,145.73c0-1.66,1.1-2.76,2.76-2.76s2.76,1.1,2.76,2.76-1.1,2.76-2.76,2.76-2.76-1.1-2.76-2.76ZM945.68,175.91h-3.68v-23h3.68v23Z"/>
    <path class="cls-1" d="M974.39,161.19v14.72h-3.68v-13.43c0-5.11-2.48-6.81-5.66-6.81-3.36,0-7.13,2.12-7.13,8v12.24h-3.68v-23h3.22l.23,3.59c1.61-2.9,4.55-4.05,7.73-4.05,4.92,0,8.97,2.81,8.97,8.74Z"/>
    <path class="cls-1" d="M1002.5,178.44c0,4.55-5.15,7.36-11.36,7.36-7.27,0-10.58-2.62-10.58-6.07,0-2.12,1.52-3.77,4.05-4.46-1.75-.83-3.13-2.21-3.13-4.23,0-2.39,1.43-3.82,3.45-4.51-2.21-1.38-3.36-3.63-3.36-6.3,0-4.55,3.91-7.78,9.43-7.78,1.75,0,3.31.32,4.69.92.87-3.17,3.04-4.69,6.49-4.69l.83,3.22c-3.08,0-4.83.87-5.47,2.53,1.84,1.38,2.9,3.4,2.9,5.8,0,4.55-3.91,7.77-9.43,7.77-1.33,0-2.53-.14-3.54-.41-1.84.41-2.58,1.33-2.58,2.9s1.24,2.48,3.04,2.48h7.64c4.37,0,6.95,2.16,6.95,5.47ZM999.09,178.85c0-1.66-1.1-2.71-4.55-2.71h-6.16c-2.9,0-4.42,1.1-4.42,2.85,0,2.25,2.53,3.73,7.59,3.73s7.54-1.84,7.54-3.86ZM985.38,160.22c0,2.85,2.44,4.78,5.61,4.78s5.61-1.93,5.61-4.78-2.44-4.78-5.61-4.78-5.61,1.93-5.61,4.78Z"/>
    <path class="cls-1" d="M1026.55,183.64h-3.17v-41.31h3.17v41.31Z"/>
    <path class="cls-1" d="M1072.69,151.52l-3.17,2.58c-1.84-4-4.05-5.57-8.51-5.57-4.83,0-7.5,2.25-7.5,5.15s2.02,4.28,8.42,5.38c8.14,1.38,11.04,3.96,11.04,8.65,0,5.2-4.65,8.65-11.73,8.65-6.44,0-10.67-2.81-12.79-6.58l3.17-2.58c1.61,3.5,4.74,5.7,9.71,5.7,4.69,0,7.82-1.75,7.82-5.01,0-2.62-1.98-4.14-8.37-5.24-8.19-1.43-11.13-3.91-11.13-8.56,0-4.88,4.28-9.02,11.32-9.02,5.57,0,9.38,2.21,11.73,6.44Z"/>
    <path class="cls-1" d="M1099.55,165.79h-17.34c.46,4.65,3.27,7.36,7.5,7.36,3.36,0,5.66-1.2,6.49-3.4l3.08,1.61c-1.75,3.13-4.6,5.01-9.57,5.01-6.95,0-11.13-4.51-11.13-11.96s3.91-11.96,10.86-11.96,10.3,4.83,10.3,10.77c0,1.06-.09,1.93-.18,2.58ZM1082.26,162.52h13.94c-.51-4.23-2.85-6.85-6.76-6.85s-6.62,2.53-7.18,6.85Z"/>
    <path class="cls-1" d="M1120.11,152.91l-.74,3.59c-.69-.37-1.7-.6-2.9-.6-2.76,0-6.07,2.44-6.07,7.59v12.42h-3.68v-23h2.99l.51,3.77c1.29-2.81,3.77-4.23,7.36-4.23.78,0,1.84.09,2.53.46Z"/>
    <path class="cls-1" d="M1124.57,145.73c0-1.66,1.1-2.76,2.76-2.76s2.76,1.1,2.76,2.76-1.1,2.76-2.76,2.76-2.76-1.1-2.76-2.76ZM1129.17,175.91h-3.68v-23h3.68v23Z"/>
    <path class="cls-1" d="M1157.28,165.79h-17.34c.46,4.65,3.27,7.36,7.5,7.36,3.36,0,5.66-1.2,6.49-3.4l3.08,1.61c-1.75,3.13-4.6,5.01-9.57,5.01-6.95,0-11.13-4.51-11.13-11.96s3.91-11.96,10.86-11.96,10.3,4.83,10.3,10.77c0,1.06-.09,1.93-.18,2.58ZM1139.98,162.52h13.94c-.51-4.23-2.85-6.85-6.76-6.85s-6.62,2.53-7.18,6.85Z"/>
    <path class="cls-1" d="M1162.38,171.17l2.99-2.07c1.1,2.81,3.96,4.05,7.27,4.05,3.77,0,5.57-1.52,5.57-3.4,0-1.7-1.43-2.71-6.03-3.54-6.53-1.2-8.93-2.99-8.93-6.85s3.45-6.9,9.06-6.9c4.92,0,7.82,1.75,9.11,5.52l-3.13,1.84c-1.01-3.04-3.08-4.14-5.98-4.14-3.08,0-5.38,1.66-5.38,3.36,0,1.98,1.52,2.99,6.21,3.77,6.44,1.06,8.74,2.99,8.74,6.76,0,4-3.73,6.81-9.62,6.81-4.23,0-8.14-1.66-9.89-5.2Z"/>
    <path class="cls-1" d="M1226,154.79c0,5.71-4.09,9.25-10.21,9.25h-7.04v11.87h-3.68v-30.36h10.72c6.12,0,10.21,3.54,10.21,9.25ZM1222.14,154.79c0-3.77-2.12-5.8-6.9-5.8h-6.49v11.59h6.49c4.78,0,6.9-2.02,6.9-5.8Z"/>
    <path class="cls-1" d="M1245.83,152.91l-.74,3.59c-.69-.37-1.7-.6-2.9-.6-2.76,0-6.07,2.44-6.07,7.59v12.42h-3.68v-23h2.99l.51,3.77c1.29-2.81,3.77-4.23,7.36-4.23.78,0,1.84.09,2.53.46Z"/>
    <path class="cls-1" d="M1271.31,164.41c0,7.45-4.19,11.96-11.13,11.96s-11.13-4.51-11.13-11.96,4.19-11.96,11.13-11.96,11.13,4.51,11.13,11.96ZM1252.73,164.41c0,5.47,2.81,8.79,7.45,8.79s7.45-3.31,7.45-8.79-2.81-8.79-7.45-8.79-7.45,3.31-7.45,8.79Z"/>
    <path class="cls-1" d="M1298.87,142.32v33.58h-3.22l-.23-4c-1.33,2.62-4.23,4.46-7.87,4.46-6.39,0-10.49-4.46-10.49-11.96s4.09-11.96,10.49-11.96c3.45,0,6.21,1.66,7.64,4.05v-14.17h3.68ZM1295.19,164.68v-.55c0-5.2-2.85-8.46-7.22-8.46s-7.22,3.4-7.22,8.74,2.71,8.74,7.22,8.74,7.22-3.27,7.22-8.46Z"/>
    <path class="cls-1" d="M1327.34,152.91v23h-3.22l-.23-3.5c-1.61,2.76-4.55,3.96-8.23,3.96-4.55,0-8.46-2.35-8.46-8.42v-15.04h3.68v14.08c0,4.74,2.12,6.17,5.43,6.17,3.91,0,7.36-2.3,7.36-7.73v-12.51h3.68Z"/>
    <path class="cls-1" d="M1355.12,158.56l-3.5,1.66c-.97-2.94-2.94-4.55-6.12-4.55-4.6,0-7.36,3.27-7.36,8.74s2.76,8.74,7.36,8.74c3.59,0,5.75-1.7,6.44-4.74l3.4,1.2c-1.56,4.23-4.88,6.76-9.75,6.76-6.95,0-11.13-4.51-11.13-11.96s4.19-11.96,11.13-11.96c4.74,0,7.82,2.35,9.52,6.12Z"/>
    <path class="cls-1" d="M1375.92,174.3c-1.43,1.29-3.4,2.07-5.93,2.07-3.41,0-6.35-1.7-6.4-6.16v-14.12h-4.6v-3.17h4.6v-5.52l3.68-1.01v6.53h8.51v3.17h-8.51v13.48c0,2.25,1.43,3.36,3.45,3.36,1.66,0,2.85-.64,3.91-1.7l1.29,3.08Z"/>
    <path class="cls-1" d="M1380.19,145.73c0-1.66,1.1-2.76,2.76-2.76s2.76,1.1,2.76,2.76-1.1,2.76-2.76,2.76-2.76-1.1-2.76-2.76ZM1384.79,175.91h-3.68v-23h3.68v23Z"/>
    <path class="cls-1" d="M1414.19,164.41c0,7.45-4.19,11.96-11.13,11.96s-11.13-4.51-11.13-11.96,4.19-11.96,11.13-11.96,11.13,4.51,11.13,11.96ZM1395.6,164.41c0,5.47,2.81,8.79,7.45,8.79s7.45-3.31,7.45-8.79-2.81-8.79-7.45-8.79-7.45,3.31-7.45,8.79Z"/>
    <path class="cls-1" d="M1441.46,161.19v14.72h-3.68v-13.43c0-5.11-2.48-6.81-5.66-6.81-3.36,0-7.13,2.12-7.13,8v12.24h-3.68v-23h3.22l.23,3.59c1.61-2.9,4.55-4.05,7.73-4.05,4.92,0,8.97,2.81,8.97,8.74Z"/>
  </g>
</svg>