<svg version="1.1" id="Calque_1" xmlns:x="ns_extend;" xmlns:i="ns_ai;" xmlns:graph="ns_graphs;" xmlns="http://www.w3.org/2000/svg" xmlns:xlink="http://www.w3.org/1999/xlink" x="0px" y="0px" viewBox="0 0 388.6 72" style="enable-background:new 0 0 388.6 72;" xml:space="preserve">
 <style type="text/css">
  .st0{fill:#00205B;}
 </style>
 <metadata>
  <sfw xmlns="ns_sfw;">
   <slices>
   </slices>
   <sliceSourceBounds bottomLeftOrigin="true" height="72" width="388.6" x="-191.5" y="0">
   </sliceSourceBounds>
  </sfw>
 </metadata>
 <g>
  <path class="st0" d="M179.2,24.6c0-13.2-8.6-23.2-26.4-23.2H117v69h16.8v-54h19c7,0,9.6,4,9.6,8.6c0,4.8-2.6,8.6-9.6,8.6h-16.2
		l23.2,36.8H179c0,0-15.8-24.8-15.6-24.8C173,43.4,179.2,36.6,179.2,24.6 M89,1.4h16.8v69H89L89,1.4z M35.2,1.4L0,70.6h19L24.6,59
		H53l-7-14.6H31.8l10.4-21.2h0.2L66,70.6h19.4L50.2,1.4H35.2z M240.6,34.6c5.4-3,8.2-7.6,8.2-14.6c0-11.2-8.4-18.6-22.2-18.6h-39.4
		v69H228c14.2,0,23.6-7.6,23.6-19.4C251.8,43,247.2,37,240.6,34.6 M204,16h22.4c3.4,0,6,2.6,6,6s-2.6,6-6,6H204V16z M227,56h-23V42
		h23c4,0,7.2,3,7.2,7S231,56,227,56 M304.8,40c0,10.4-4.8,16.2-14.4,16.2c-9.4,0-14.2-5.8-14.2-16.2V1.4H259v37.4
		c0,21.4,11.2,33.2,31.6,33.2s31.6-11.8,31.6-33.2V1.4H305V40H304.8z M367,29c-16-3.8-19.4-4.2-19.4-8.8c0-3.6,4-5.2,10.8-5.2
		c9,0,18.4,2.2,23.8,5.6l5.4-14c-7.2-4-17.2-6.6-29.2-6.6c-17.8,0-27.8,8.8-27.8,20.8c0,12.8,7.4,18,24.6,21.6
		c13.4,3,16.2,4.8,16.2,8.6c0,4-3.6,5.8-11,5.8c-10.6,0-20-2.6-27.6-6.8l-5.2,14.8c8.4,4.4,20.8,7.2,33.2,7.2
		c17.4,0,27.8-8,27.8-21.6C388.8,39.4,381.8,32.4,367,29">
  </path>
 </g>
</svg>