<svg height="125.37569" viewBox="0 0 79.165531 12.461603" width="797.602791" xmlns="http://www.w3.org/2000/svg" xmlns:xlink="http://www.w3.org/1999/xlink"><symbol id="a" overflow="visible"/><g transform="translate(-107.37271 -211.89236)"><g fill="#00427f"><use height="100%" transform="matrix(.35277779 0 0 .35277779 -8.994356 -57.875165)" width="100%" x="461.17261" href="#a" y="562.20813"/><path d="m107.505 221.20514h1.59025v-1.61506l.33349-.51263.93155 2.12769h1.81212l-1.72668-3.43545 1.53789-2.66651h-1.69223l-1.17822 2.34129h-.0179v-2.34129h-1.59026zm0 0"/><path d="m112.31435 221.20514h1.4869v-3.76893h.0166l1.05971 3.76893h1.74322v-6.10196h-1.48691v3.76067h-.0165l-1.02526-3.76067h-1.77767zm0 0"/><path d="m117.19123 218.15416c0 2.28203.55535 3.17087 2.17868 3.17087 1.62471 0 2.18005-.88884 2.18005-3.17087s-.55534-3.17086-2.18005-3.17086c-1.62333 0-2.17868.88883-2.17868 3.17086m1.64124 0c0-1.64951.051-2.09324.53744-2.09324.48782 0 .53881.44373.53881 2.09324s-.051 2.09324-.53881 2.09324c-.48645 0-.53744-.44373-.53744-2.09324"/><path d="m122.11909 221.20514h1.59026v-2.44464h.41892c.38447 0 .5209.18052.5209.8723v.40927c0 .2577 0 .83785.15434 1.16307h1.69085v-.0854c-.10197-.051-.13642-.11989-.17914-.18741-.0772-.11989-.0772-.53055-.0772-.84749v-.5209c0-.81167-.23013-1.29812-.99908-1.36702v-.0165c.72623-.11162 1.0418-.64217 1.0418-1.45383 0-.93983-.46164-1.62333-1.67432-1.62333h-2.48736zm1.59026-4.9568h.3073c.47818 0 .67524.21359.67524.70969 0 .43546-.21359.72622-.66697.72622h-.31557zm0 0"/><path d="m127.02353 221.20514h1.59026v-2.44464h.41754c.38448 0 .52228.18052.52228.8723v.40927c0 .2577 0 .83785.15296 1.16307h1.69223v-.0854c-.10197-.051-.13642-.11989-.17914-.18741-.0772-.11989-.0772-.53055-.0772-.84749v-.5209c0-.81167-.23013-1.29812-.99908-1.36702v-.0165c.72622-.11162 1.04179-.64217 1.04179-1.45383 0-.93983-.46164-1.62333-1.67431-1.62333h-2.48736zm1.59026-4.9568h.3073c.47818 0 .67524.21359.67524.70969 0 .43546-.2136.72622-.66697.72622h-.31557zm0 0"/><path d="m131.79017 219.38475h2.6665v-1.29811h-2.6665zm0 0"/><path d="m135.12226 221.20514h2.40192c1.3243 0 1.83693-.74414 1.83693-1.80248 0-.63251-.32522-1.3174-1.12861-1.39319v-.0179c.67523-.13642.95773-.71796.95773-1.36701 0-.91502-.53055-1.52136-1.66605-1.52136h-2.40192zm1.59026-4.9568h.38447c.32384 0 .50299.29076.50299.63252 0 .32521-.17915.6146-.50299.6146h-.38447zm0 2.32475h.44373c.29076 0 .56361.26458.56361.73449 0 .49609-.27285.75241-.56361.75241h-.44373zm0 0"/><path d="m139.97571 221.20514h1.58888v-2.44464h.41892c.38448 0 .5209.18052.5209.8723v.40927c0 .2577 0 .83785.15434 1.16307h1.69223v-.0854c-.10197-.051-.13642-.11989-.17914-.18741-.0772-.11989-.0772-.53055-.0772-.84749v-.5209c0-.81167-.23151-1.29812-1.00046-1.36702v-.0165c.72623-.11162 1.04318-.64217 1.04318-1.45383 0-.93983-.46165-1.62333-1.6757-1.62333h-2.48598zm1.58888-4.9568h.3073c.47956 0 .67524.21359.67524.70969 0 .43546-.21359.72622-.66559.72622h-.31695zm0 0"/><path d="m144.87877 221.20514h3.69314v-1.29949h-2.10288v-1.21267h1.89756v-1.24851h-1.89756v-1.04179h2.02571v-1.2995h-3.61597zm0 0"/><path d="m149.09281 221.20514h1.48691v-4.54615h.0165l.84612 4.54615h1.14515l.84611-4.54615h.0179v4.54615h1.48552v-6.10196h-2.27238l-.64079 3.6146h-.0165l-.64216-3.6146h-2.27239zm0 0"/><path d="m159.49149 216.86432c0-1.30776-.5898-1.88102-1.97473-1.88102-1.34221 0-1.99953.67523-1.99953 1.90582 0 2.16215 2.49425 1.56408 2.49425 2.76986 0 .33211-.18742.58842-.51126.58842-.30868 0-.52227-.18741-.52227-.70831v-.14607h-1.53789v.2136c0 1.26504.73449 1.71841 2.05052 1.71841 1.40146 0 2.16214-.58153 2.16214-1.87964 0-2.23105-2.5976-1.64125-2.5976-2.84703 0-.27285.15434-.53744.49609-.53744.3073 0 .45338.29904.45338.65733v.14607zm0 0"/><path d="m160.21496 221.20514h3.69176v-1.29949h-2.1015v-1.21267h1.89618v-1.24851h-1.89618v-1.04179h2.02433v-1.2995h-3.61459zm0 0"/><path d="m168.51764 212.02465h17.88831v12.19702h-17.88831zm0 0"/></g><path d="m173.39452 218.12247c0-2.24483 1.82039-4.06521 4.06521-4.06521s4.06659 1.82038 4.06659 4.06521c0 2.24482-1.82177 4.06521-4.06659 4.06521s-4.06521-1.82039-4.06521-4.06521m4.05419 3.08818c1.70601 0 3.08956-1.38217 3.08956-3.08956 0-1.70601-1.38355-3.08956-3.08956-3.08956-1.70739 0-3.09094 1.38355-3.09094 3.08956 0 1.70739 1.38355 3.08956 3.09094 3.08956" fill="#fff"/><path d="m182.30905 215.84457c.32384.69177.50574 1.46348.50574 2.27652 0 .8158-.1819 1.5875-.50712 2.28065l-1.10519-.001c.40377-.66421.63666-1.44418.63666-2.27927 0-.83372-.23289-1.61231-.63666-2.27514zm0 0" fill="#fff"/><path d="m173.69355 215.84457c-.40376.66422-.63665 1.44281-.63665 2.27652 0 .83234.23151 1.61093.6339 2.27376l-1.10381.001c-.32384-.69039-.50574-1.4621-.50574-2.27514 0-.81442.1819-1.58612.50712-2.2779zm0 0" fill="#fff"/><path d="m175.61454 215.84457h1.30087v4.55304h-1.30087zm0 0" fill="#fff"/><path d="m179.34213 220.39761-1.10794-2.26825 1.10794-2.28479h-1.30225l-1.10656 2.26825 1.10656 2.28479zm0 0" fill="#fff"/><path d="m171.75603 218.12109c0-.80891.1695-1.57923.47405-2.27514v-.001h-.97841l-1.10657 2.26824 1.10657 2.2848h.97841c-.30455-.69729-.47405-1.46624-.47405-2.27653" fill="#fff"/><path d="m183.14 218.12109c0-.80891-.1695-1.57923-.47404-2.27514v-.001h.97841l1.10794 2.26824-1.10794 2.2848h-.97841c.30454-.69729.47404-1.46624.47404-2.27653" fill="#fff"/></g></svg>