<svg version="1.1" id="Rheinmetall_Group_4c_positiv" xmlns:x="ns_extend;" xmlns:i="ns_ai;" xmlns:graph="ns_graphs;" xmlns="http://www.w3.org/2000/svg" xmlns:xlink="http://www.w3.org/1999/xlink" x="0px" y="0px" viewBox="0 0 462.5 126" style="enable-background:new 0 0 462.5 126;" xml:space="preserve">
 <style type="text/css">
  .st0{fill:#3E3D40;}
	.st1{fill:#007EC1;}
	.st2{fill:#00406E;}
	.st3{fill:#000824;}
 </style>
 <metadata>
  <sfw xmlns="ns_sfw;">
   <slices>
   </slices>
   <sliceSourceBounds bottomLeftOrigin="true" height="126" width="462.5" x="2096.9" y="571.2">
   </sliceSourceBounds>
  </sfw>
 </metadata>
 <g>
  <path id="RHEINMETALL_1_" class="st0" d="M94.9,103.7H90c-0.9,0-1.5-0.5-1.5-1.8V69.1c0-4.4,1.6-6.7,6.5-6.7h4.4
		c5.7,0,9.6,0.5,11.8,1.4c4.4,1.8,6,5.9,6,10.9c0,5-1.7,9.2-6.6,11.3l7.9,14.4c0.3,0.6,0.8,1.4,0.8,2.1c0,0.6-0.4,1-0.9,1.1
		c-0.5,0.1-4.6,0.3-5.8,0.3c-1,0-1.6-0.5-2-1.3l-7.6-15c-1,0.1-2,0.1-3.2,0.1h-3.2V102C96.6,103.2,95.9,103.7,94.9,103.7z M100,81.2
		c2.5,0,4.5-0.2,5.9-0.7c1.9-0.7,3-2.6,3-5.2c0-3.1-0.9-4.8-2.9-5.5c-1.2-0.4-3-0.5-5.3-0.5h-2.3c-1.4,0-1.9,0.6-1.9,1.9v10
		L100,81.2L100,81.2z M132,103.7h-4.9c-0.9,0-1.5-0.5-1.5-1.8V64.2c0-1,0.5-1.8,1.6-1.8h5c1.1,0,1.5,0.6,1.5,1.7v14.7h16V64.2
		c0-1,0.5-1.8,1.6-1.8h5c1.1,0,1.5,0.6,1.5,1.7V102c0,1.1-0.6,1.8-1.6,1.8h-4.8c-0.9,0-1.6-0.5-1.6-1.8V85.9h-16V102
		C133.6,103.1,133,103.7,132,103.7z M173.5,103.7c-4.1,0-6.2-1.6-6.2-6.2V68.9c0-4.4,2-6.4,6.2-6.4H191c1.1,0,1.6,0.4,1.6,1.6v4.1
		c0,1-0.5,1.3-1.6,1.3h-13.8c-1.2,0-1.9,0.6-1.9,2.2v7.2h14.2c1.1,0,1.6,0.3,1.6,1.6v4.1c0,1-0.6,1.4-1.6,1.4h-14.2v8.5
		c0,1.6,0.6,2.3,2.2,2.3H192c1,0,1.6,0.3,1.6,1.6v4c0,1-0.5,1.4-1.6,1.4L173.5,103.7L173.5,103.7z M207.7,103.7h-4.9
		c-0.9,0-1.5-0.5-1.5-1.8V64.2c0-1,0.5-1.8,1.6-1.8h5c1.1,0,1.5,0.6,1.5,1.7V102C209.4,103.1,208.7,103.7,207.7,103.7z M225.6,103.7
		h-4.7c-0.9,0-1.5-0.5-1.5-1.8V67.7c0-3.7,1.5-5.5,5.4-5.5h2.2c3.3,0,4.1,1.5,5.3,3.9c9.4,19.3,11.1,23.2,12.9,27.5
		c-0.2-5.3-0.2-10.4-0.2-29.1c0-1.3,0.6-2.2,1.8-2.2h4.4c1.2,0,1.6,0.8,1.6,2v35.1c0,3.8-2.2,4.6-4.5,4.6h-1.8c-3.4,0-4.4-1.2-6-4.5
		c-10.4-21.4-11.4-23.6-13.2-27.9c0.1,4,0.1,8,0.1,30.3C227.2,103.1,226.6,103.7,225.6,103.7z M269.1,103.7h-5
		c-0.9,0-1.4-0.6-1.4-1.8V68.2c0-3,0.8-5.9,5.7-5.9h1.8c4.1,0,4.4,1,6.4,6.1c4,10.3,5.2,13.4,6.4,17c1.3-3.7,2.2-6.5,6.2-17.1
		c1.6-4.3,2.2-6,6.7-6h2c4.7,0,5,2.3,5,5.9v33.7c0,1.4-0.6,1.9-1.6,1.9h-4.9c-0.9,0-1.5-0.5-1.5-1.9c0-21,0.1-25.7,0.2-31.4
		c-1.5,4.8-2.6,8.2-8.1,22.5c-0.9,2.4-1.6,3.4-3.6,3.4h-0.9c-1.9,0-2.8-0.9-3.6-3.2c-5.2-14-6.5-17.6-8.3-22.8
		c0.2,5.8,0.2,10.8,0.2,31.6C270.6,103,270.2,103.7,269.1,103.7z M318.6,103.7c-4.1,0-6.2-1.6-6.2-6.2V68.9c0-4.4,2-6.4,6.2-6.4
		h17.5c1.1,0,1.6,0.4,1.6,1.6v4.1c0,1-0.5,1.3-1.6,1.3h-13.8c-1.2,0-1.9,0.6-1.9,2.2v7.2h14.2c1,0,1.6,0.3,1.6,1.6v4.1
		c0,1-0.6,1.4-1.6,1.4h-14.2v8.5c0,1.6,0.6,2.3,2.2,2.3h14.5c1,0,1.6,0.3,1.6,1.6v4c0,1-0.5,1.4-1.6,1.4L318.6,103.7L318.6,103.7z
		 M359.6,103.7h-5c-0.9,0-1.6-0.6-1.6-1.8V69.5h-7.6c-1.1,0-1.6-0.4-1.6-1.3v-4.1c0-1.2,0.5-1.6,1.6-1.6h25.2c1.1,0,1.6,0.4,1.2,1.6
		l-1.4,4.1c-0.3,1-0.8,1.3-1.9,1.3h-7.3V102C361.2,103.2,360.5,103.7,359.6,103.7z M377.4,101.9c-0.5,1.4-0.8,2-2,2
		c-1.2,0-5-0.1-5.8-0.3c-0.6-0.2-0.8-0.7-0.8-1.2c0-0.5,0.2-1.2,0.4-1.9l11.4-33.3c1.2-3.4,2-5,6.2-5h1.9c3.9,0,4.5,1.5,5.6,4.8
		l11.2,33.3c0.2,0.6,0.4,1.3,0.4,1.9c0,0.5-0.2,1-0.8,1.2c-0.7,0.3-4.1,0.3-5.8,0.3c-1.2,0-1.6-0.6-2-2l-3-8.8h-14.2L377.4,101.9z
		 M392.7,86.2c-3.2-10.3-4.2-13.5-5.1-17c-0.9,3.4-2,6.8-5.3,17L392.7,86.2L392.7,86.2z M417.2,103.7c-4,0-6.1-1.8-6.1-6V64.2
		c0-1,0.5-1.8,1.6-1.8h5c1.1,0,1.5,0.6,1.5,1.7v30.4c0,1.4,0.6,2.2,2.2,2.2H433c1,0,1.6,0.3,1.6,1.6v4c0,1-0.6,1.4-1.6,1.4
		L417.2,103.7L417.2,103.7z M445.1,103.7c-4,0-6.1-1.8-6.1-6V64.2c0-1,0.5-1.8,1.6-1.8h5c1.1,0,1.5,0.6,1.5,1.7v30.4
		c0,1.4,0.6,2.2,2.2,2.2h11.7c1.1,0,1.6,0.3,1.6,1.6v4c0,1-0.6,1.4-1.6,1.4L445.1,103.7L445.1,103.7z">
  </path>
  <g id="Bildmarke_1_">
   <path class="st1" d="M87.4,0.1c0,0-79.3,35.3-79.3,35.3C1.6,38.3,0,42.7,0,45.7v37.3v41.7c0,0.8,0.8,1.5,1.7,1.1l41.2-18.3
			c2.5-1.2,5.7-4,5.7-9.6V54.1l34.4-15.3c3.6-1.7,6.1-6.4,6.1-12.5c0,0,0-20.9,0-25C89,0.2,88.3-0.2,87.4,0.1z">
   </path>
   <path class="st2" d="M1.7,125.9l41.2-18.3c2.5-1.2,5.7-4,5.7-9.6V54.1c0,0-40.5,18.3-40.5,18.3h0c-6.7,3-8,7.4-8.1,10.7v41.7
			C0,125.6,0.8,126.3,1.7,125.9z">
   </path>
   <path class="st3" d="M0,83.1c0.1-3.3,1.4-7.7,8.1-10.7h0c0,0,40.5-18.3,40.5-18.3v7.2l-40.5,15c-6,2.3-8,6.6-8.1,9.9V83.1z">
   </path>
  </g>
 </g>
</svg>